<svg width="500" height="500" viewBox="0 0 500 500" fill="none" xmlns="http://www.w3.org/2000/svg">
<g clip-path="url(#clip0_20_23893)">
<path d="M44.438 94.6235L48.0713 70.7473L61.0475 65.5569L75.5809 62.4426L82.8475 60.3664L92.1904 63.4807L105.686 72.3045L112.433 81.1283L118.143 78.014L129.562 79.5711L143.057 92.0283L151.362 107.081L153.438 93.0664L157.071 79.5711L161.743 67.114L170.048 60.3664H177.833L194.443 59.3283L203.786 60.3664L211.052 70.2283L215.724 78.014L221.433 70.2283L231.814 65.5569L247.386 62.4426L260.881 67.114L269.705 70.2283L275.933 72.3045L289.429 67.114L307.076 63.4807L330.952 65.5569L335.624 70.2283L339.776 79.5711L357.424 87.8759L367.805 96.1807L375.071 105.524L377.667 118.5L381.819 120.057L395.314 125.247L399.986 134.071L403.1 154.833L407.252 170.404H414.519H428.014L433.205 175.595L436.838 189.09L433.205 219.714L422.305 246.705L448.257 258.124L463.31 269.024L480.438 286.152L483.552 302.762L476.286 320.928L466.424 331.828L450.852 342.209L428.014 357.781L408.81 360.895H384.414L340.295 357.781H328.357L330.433 366.085L346.005 378.543L369.881 392.557L384.414 405.533L393.238 417.471L390.124 425.257L372.995 442.905L353.79 451.728L330.433 457.438L315.9 455.881L287.871 453.286H265.552L240.638 448.095L211.052 442.905L167.452 437.195L150.843 429.409L141.5 417.99L144.095 379.581V355.185L141.5 334.943L125.409 331.309L111.395 318.333L86.4809 287.709L80.7714 269.024L57.4142 223.866L44.438 213.485L15.3713 179.747H23.1571L71.4285 195.319L55.338 177.152L48.0713 158.466L44.438 140.3V124.728V94.6235Z" fill="#D27A7A"/>
<path d="M56.1523 64.2096C60.4147 63.0966 64.6284 61.8604 68.7692 60.4394C74.2287 58.5691 80.0659 57.4754 85.8949 58.1652C90.8496 58.9865 95.2916 61.5767 99.3508 64.4606C104.894 68.3966 109.571 73.3867 114.804 77.801C121.255 74.4712 129.121 76.3508 134.774 80.3856C142.07 85.6947 147.276 93.4671 150.559 101.784C150.531 97.3807 151.559 93.1291 152.588 88.8776C154.254 82.4516 156.412 76.1878 158.975 70.0486C160.902 65.7273 163.642 61.2986 168.216 59.3506C172.469 57.6718 177.166 58.3813 181.67 58.2412C187.823 57.9484 193.967 57.0897 200.117 57.5103C204.164 57.8356 207.658 60.3726 210.253 63.3361C212.896 66.4229 215.254 70.0497 215.604 74.1843C221.001 67.2826 228.898 62.3848 237.519 60.762C246.593 59.3873 255.972 61.3104 264.024 65.4665C267.02 66.9188 269.592 69.4641 273.024 69.6759C274.328 69.7309 275.482 70.1295 276.712 70.3564C279.018 69.161 281.19 67.8052 283.618 66.9179C291.642 63.964 300.162 62.8083 308.592 62.3287C313.761 62.0684 318.889 62.6076 324.068 62.9132C327.734 63.1753 331.817 63.4146 334.685 65.9858C338.017 69.0141 339.867 73.3398 341.62 77.419C345.326 79.5879 349.106 81.5849 352.638 84.036C357.361 87.1565 363.11 89.0883 366.818 93.6067C368.126 95.2976 369.793 96.6334 371.201 98.2141C376.196 103.648 377.749 111.011 380.684 117.543C384 118.726 387.516 119.332 390.745 120.835C394.712 122.402 398.403 125.075 400.354 128.934C403.087 134.051 404.278 139.776 405.113 145.499C406.184 153.266 407.218 161.118 409.718 168.534C413.275 168.341 416.871 167.705 420.439 167.72C424.918 167.519 429.711 168.831 432.993 172.093C435.748 174.922 437.157 178.852 437.767 182.742C438.495 187.653 438.238 192.597 437.957 197.479C436.906 214.486 432.054 231.071 425.019 246.453C431.594 248.13 437.807 250.876 443.822 253.842C451.997 257.949 459.578 263.075 466.725 268.728C472.719 273.625 478.834 278.831 482.604 285.674C485.204 290.274 486.569 295.717 485.658 300.99C484.48 308.291 479.813 314.335 477.075 321.113C474.864 325.618 472.799 330.492 468.577 333.512C460.749 339.308 452.506 344.413 444.36 349.765C439.77 352.574 435.412 355.79 430.565 358.131C425.176 360.899 419.445 362.806 413.436 363.825C404.028 365.616 394.322 365.032 384.852 364.142C376.673 363.454 368.548 361.819 360.307 361.156C350.652 360.339 340.898 359.632 331.272 360.512C331.316 361.705 331.1 363.143 331.969 364.082C336.288 369.427 342.177 373.156 347.931 376.724C356.434 381.841 365.048 386.701 373.167 392.469C380.329 397.617 387.315 403.404 392.128 410.904C394.095 413.902 395.283 417.635 394.762 421.187C394.23 424.531 392.162 427.412 390.034 429.961C384.665 436.211 378.511 441.916 371.465 446.265C365.616 449.855 359.073 451.868 352.725 454.375C348.041 456.224 343.224 457.556 338.382 458.826C334.366 459.842 330.24 460.758 326.106 460.752C320.569 460.802 315.249 459.057 309.865 458.049C302.01 456.378 293.966 455.851 285.967 456.16C280.269 456.344 274.618 457.008 268.935 456.688C252.736 455.535 237.22 450.337 221.237 447.745C212.213 446.18 203.063 445.378 193.899 444.722C186.211 444.197 178.514 443.105 171.018 441.079C162.661 439.038 154.331 436.344 147.317 431.209C144.497 429.117 142.184 426.327 140.933 422.976C139.228 419.02 139.076 414.665 138.911 410.457C138.683 403.924 138.997 397.32 139.483 390.791C140.35 381.618 140.86 372.444 141.161 363.281C141.509 354.599 142.068 345.548 138.624 337.365C137.581 336.708 136.303 336.358 135.124 335.898C127.297 333.576 119.524 330.307 113.298 325.002C106.214 318.968 101.935 310.474 96.1115 303.302C91.0973 296.736 84.8992 290.78 81.9709 282.821C78.4945 273.654 75.5113 264.292 71.4802 255.344C66.8265 245.36 61.5564 235.619 55.0893 226.636C52.9617 223.773 51.0077 220.628 48.2621 218.365C45.0511 215.644 42.1612 212.655 39.2097 209.69C35.0824 205.551 31.5975 200.874 28.1126 196.196C24.1995 190.976 19.435 186.305 13.7409 183.07C12.4516 182.511 11.9165 181.155 11.615 179.85C12.783 177.395 15.7251 177.088 18.0995 177.148C22.245 177.363 26.2752 178.549 30.3071 179.379C36.269 180.586 42.0313 182.37 47.805 184.363C53.0499 186.281 58.3695 188.026 63.4279 190.373C58.6746 185.912 55.3666 180.239 52.0456 174.714C48.0402 168.177 46.304 160.53 44.665 153.13C43.2969 145.695 41.8056 138.308 41.0652 130.838C40.4057 124.476 40.7065 118.019 40.9699 111.648C41.563 100.519 41.5042 89.3618 43.0445 78.2856C43.6011 75.0038 44.2081 71.4883 46.5698 68.9894C49.0921 66.3558 52.8241 65.5234 56.2496 64.456L56.1523 64.2096ZM109.066 81.4906C108.654 80.0865 107.773 78.9387 106.954 77.7666C107.267 79.2809 107.494 80.758 107.93 82.2237C108.239 82.1021 108.782 81.6738 109.066 81.4906ZM105.346 84.8816C105.802 82.0667 106.062 79.1157 105.633 76.2231C104.629 75.1239 103.526 74.1351 102.239 73.2192C103.404 76.5332 103.782 80.0159 103.384 83.5198C103.193 85.0197 103.382 86.5827 103.671 88.0355C104.266 87.0171 105.181 86.0864 105.322 84.82L105.346 84.8816ZM99.8555 109.41C96.8025 115.03 94.8054 121.159 92.3784 127.102C91.4067 129.693 90.3733 132.309 89.8929 135.062C89.4369 137.877 88.0466 140.491 88.1193 143.382C88.111 145.166 88.1027 146.949 88.1804 148.77C88.7274 144.922 90.2328 141.337 91.7383 137.752C93.0069 134.83 94.7539 132.218 96.0469 129.357C98.0957 125.344 99.6531 121.168 101.764 117.131C103.712 113.584 105.832 110.113 107.67 106.467C109.286 102.981 110.791 99.3957 112.001 95.7846C113.781 91.4503 115.856 87.1419 118.789 83.563C118.237 83.0685 117.686 82.5741 117.097 82.1656C111.64 91.441 104.404 99.6384 99.7938 109.434L99.8555 109.41ZM109.597 88.9718C106.948 92.3675 104.372 95.9481 101.637 99.3065C97.8011 104.025 94.5536 109.153 91.8462 114.566C90.5272 117.721 89.8716 121.113 89.4252 124.494C91.4158 119.791 94.2902 115.523 96.7348 111.069C99.5752 106.173 102.649 101.328 105.269 96.2349C106.646 93.7685 107.999 91.2404 109.573 88.9102L109.597 88.9718ZM164.054 247.853C162.875 247.393 161.536 247.067 160.394 246.521C160.559 248.023 160.872 249.537 161.555 250.905C162.747 251.218 163.991 250.941 165.184 250.897C164.795 249.911 164.529 248.877 164.017 247.939L164.054 247.853ZM167.781 250.797C169.748 251.089 171.708 250.458 173.649 251.045C173.955 251.28 174.856 250.853 174.118 250.788C171.67 250.544 169.473 249.489 167.137 248.986C167.381 249.602 167.624 250.219 167.805 250.859L167.781 250.797ZM157.802 245.55C156.035 244.682 154.242 243.751 152.363 243.14C152.455 244.457 152.461 245.736 152.677 247.004C153.212 248.359 153.932 249.642 154.529 250.973C155.624 251.039 156.694 251.044 157.691 250.864C157.429 249.116 157.942 247.347 157.827 245.612L157.802 245.55ZM150.266 241.618C148.229 240.428 146.28 238.919 144.59 237.165C144.787 239.65 144.505 242.183 145.244 244.597C145.851 246.494 146.248 248.403 147.039 250.227C148.059 250.465 149.154 250.531 150.187 250.622C150.718 247.635 150.51 244.584 150.204 241.642L150.266 241.618ZM142.612 241.72C142.499 239.628 142.718 237.476 142.666 235.36C141.909 234.164 140.93 233.126 140.111 231.954C139.017 236.943 139.633 242.113 139.905 247.132C139.75 248.546 141.473 248.578 142.418 248.989C142.245 246.565 142.785 244.144 142.588 241.658L142.612 241.72ZM137.463 234.993C137.681 233.198 137.96 231.379 138.116 229.608C136.7 227.105 134.952 224.662 133.759 222C133.617 225.972 132.443 229.854 131.711 233.775C131.144 236.491 131.611 239.297 132.177 241.994C132.97 243.461 134.467 244.365 135.618 245.478C135.93 241.936 137.09 238.559 137.463 234.993ZM130.359 225.478C130.714 223.13 131.451 220.846 131.954 218.511C130.958 215.628 129.507 212.854 128.573 209.947C128.049 214.213 125.522 217.917 125.231 222.233C124.916 226.488 124.81 230.731 124.261 234.935C125.202 236.415 126.994 237.346 128.157 238.667C129.714 234.492 129.527 229.866 130.359 225.478ZM123.445 222.582C125.092 217.73 124.771 212.587 126.27 207.722C126.472 206.789 127.067 205.77 126.678 204.784C125.778 202.505 124.94 200.201 123.978 197.946C122.998 202.32 121.784 206.645 120.337 210.919C119.015 214.788 118.246 218.795 118.153 222.891C118.143 225.031 117.924 227.182 117.68 229.273C118.475 230.383 119.727 231.028 120.72 231.918C121.596 228.724 122.582 225.629 123.569 222.533L123.445 222.582ZM116.731 216.402C117.624 212.347 117.84 208.202 118.88 204.16C119.672 200.571 121.017 197.121 122.214 193.657C121.533 191.932 120.643 190.218 119.838 188.542C118.471 191.574 117.914 194.856 116.203 197.739C113.76 201.837 112.803 206.63 112.449 211.327C112.219 215.619 111.818 219.837 111.036 223.991C112.004 224.819 112.948 225.586 113.892 226.353C114.609 222.937 116.051 219.732 116.707 216.34L116.731 216.402ZM109.717 211.266C110.993 206.917 113.017 202.842 113.592 198.343C114.241 193.671 115.542 189.027 117.236 184.656C116.13 181.674 113.816 179.241 112.402 176.381C110.474 183.408 108.338 190.447 107.221 197.724C106.56 202.187 105.876 206.587 104.957 210.938C104.577 213.224 103.816 215.447 103.584 217.746C104.698 218.944 106.048 219.836 107.298 220.838C108.113 217.668 108.608 214.41 109.742 211.328L109.717 211.266ZM99.6646 213.953C100.909 208.263 102.793 202.748 104.59 197.196C106.776 190.281 107.855 183.089 109.868 176.099C110.144 174.993 110.629 173.876 110.758 172.757C110.336 170.787 109.521 168.902 109.641 166.86C107.926 173.163 105.51 179.315 103.156 185.443C100.184 192.171 98.92 199.435 97.0169 206.524C96.3289 208.932 96.1048 212.154 98.3736 213.75C98.7044 214.047 99.525 214.863 99.6646 213.953ZM96.4729 196.484C99.3962 189.633 100.268 182.097 102.38 174.996C104.636 166.272 107.874 157.873 111.112 149.473C113.425 144.145 113.883 138.267 115.619 132.74C114.24 135.563 112.862 138.386 111.397 141.172C107.881 148.328 105.029 155.72 103.013 163.424C101.622 168.744 100.207 174.002 98.4729 179.173C96.3135 185.794 94.1541 192.415 93.6295 199.387C93.6309 201.736 92.5132 203.958 92.8097 206.333C93.6129 202.954 95.0307 199.688 96.4729 196.484ZM99.9649 165.268C104.689 154.858 108.357 143.938 111.902 133.068C114.658 125.072 117.93 117.3 121.485 109.701C122.752 107.136 123.884 104.41 125.347 101.981C127.453 99.0138 125.452 95.3887 124.863 92.274C123.762 96.3407 121.935 100.195 120.232 104.001C117.471 110.36 113.654 116.211 110.438 122.323C107.444 128.632 105.027 135.141 102.437 141.575C100.53 147.028 98.8552 152.532 96.8613 157.948C95.5634 161.878 94.1552 165.71 93.4103 169.778C92.878 173.122 92.6652 176.553 91.9853 179.883C91.458 182.156 91.9394 184.459 92.0025 186.784C94.2268 179.425 96.795 172.216 100.026 165.244L99.9649 165.268ZM97.8682 145.159C100.937 138.678 104.031 132.258 107.1 125.777C110.638 119.039 112.739 111.73 115.7 104.793C117.282 100.679 119.06 96.7013 121.071 92.7739C121.655 91.5463 122.607 90.5296 123.498 89.5372C122.716 88.279 121.873 87.0453 121.054 85.8731C118.282 92.0236 114.429 97.6035 110.945 103.394C108.948 106.817 107.147 110.377 105.666 114.023C102.719 120.813 98.4815 127.043 96.9465 134.343C95.1989 142.368 91.6446 149.966 90.8312 158.192C90.6087 161.057 89.7342 163.895 89.9301 166.737C91.6874 159.278 94.8702 152.182 97.9542 145.197L97.8682 145.159ZM144.539 99.8883C141.382 93.515 136.757 87.9349 130.87 83.8498C128.072 82.1769 124.928 81.0683 121.718 80.6975C125.247 83.862 127.663 88.1777 128.503 92.8311C129.097 97.225 128.708 101.652 128.232 106.041C127.552 112.078 125.47 117.813 123.684 123.574C121.374 130.895 119.531 138.317 117.921 145.789C116.415 152.08 114.762 158.358 114.4 164.839C114.058 169.389 116.217 173.593 118.661 177.257C121.789 181.933 124.596 186.878 126.54 192.163C127.728 195.896 128.978 199.604 130.228 203.312C132.221 208.72 134.953 213.837 137.723 218.868C141.274 225.157 145.404 231.289 151.204 235.693C154.637 238.254 158.615 240.031 162.607 241.66C170.516 244.733 178.575 247.462 186.846 249.466C183.921 240.794 182.819 231.687 180.991 222.724C179.02 212.678 176.384 202.752 174.844 192.535C173.071 182.269 172 171.796 168.896 161.77C165.524 151.422 160.981 141.537 156.684 131.555C152.278 121.116 149.314 110.18 144.601 99.864L144.539 99.8883ZM262.313 256.206C254.1 254.891 245.811 254.104 237.505 254.179C231.021 254.175 224.538 253.814 218.095 253.011C214.295 252.588 210.485 251.6 206.682 251.891C206.03 251.863 205.439 251.811 204.787 251.784C216.679 253.214 228.254 256.549 239.431 260.682C243.731 262.189 248.405 262.48 252.886 261.922C256.912 261.472 260.807 262.498 264.567 263.72C270.456 264.742 276.46 264.793 282.363 265.311C285.364 265.693 288.526 265.584 291.389 266.519C291.081 266.641 290.464 266.884 290.095 267.03C280.646 266.915 271.265 265.348 261.824 266.156C258.452 266.276 255.057 265.978 251.827 264.832C249.898 264.098 247.808 263.855 245.867 263.269C244.598 263.485 246.429 263.972 246.872 264.011C250.471 265.368 253.87 267.302 257.344 269.064C258.658 269.684 259.871 270.772 261.408 270.877C265.455 271.203 269.537 271.799 273.47 272.738C280.534 274.934 288.083 273.664 295.3 274.802C295.373 274.987 295.728 275.345 295.863 275.506C290.84 276.136 285.797 275.634 280.729 275.427C276.498 275.175 272.198 276.374 268.069 275.298C270.033 276.303 271.711 277.848 273.688 278.705C277.315 279.41 280.904 280.201 284.542 281.115C292.422 282.49 300.473 281.59 308.443 282.29C308.701 282.402 309.217 282.625 309.474 282.737C307.711 283.504 305.707 283.299 303.786 283.487C295.886 283.686 288.049 283.504 280.149 283.703C281.278 284.397 282.233 285.373 283.586 285.551C285.491 285.867 287.433 286.454 289.213 287.175C292.271 288.603 295.685 287.326 298.896 287.34C304.951 287.158 310.968 287.061 317.011 286.669C317.478 286.77 317.945 286.87 318.412 286.971C317.734 287.238 316.994 287.53 316.268 287.675C309.902 288.692 303.45 289.673 296.917 289.546C293.818 289.274 290.73 289.211 287.627 289.653C289.464 291.42 292.038 290.902 294.35 291.343C298.222 291.95 302.12 292.619 306.082 292.55C313.736 292.449 321.187 290.932 328.686 289.538C333.737 288.256 337.275 284.224 340.994 280.833C340.024 280.362 338.894 280.025 338.295 279.05C339.663 278.724 341.002 279.05 342.405 278.995C343.479 278.286 344.235 277.133 345.15 276.202C343.831 273.945 340.753 274.448 338.852 273.062C340.147 272.551 341.535 273 342.901 273.031C344.414 273.074 345.951 273.18 347.416 273.1C347.922 272.758 348.379 272.292 348.837 271.827C347.426 270.96 346.052 270.006 344.468 269.421C341.162 268.447 337.669 268.26 334.274 267.962C334.201 267.777 333.871 267.481 333.798 267.296C338.255 266.676 342.703 267.839 347.134 267.514C348.574 267.373 349.974 268.031 351.338 268.418C352.044 267.499 352.811 266.555 353.492 265.574C352.513 264.536 350.803 264.357 349.503 263.588C344.433 261.032 338.789 260.269 333.27 259.101C332.741 259.025 332.349 258.753 332.13 258.198C335.625 258.029 339.042 258.745 342.385 259.633C346.858 260.858 351.587 259.846 356.01 261.304C357.317 260.646 357.744 258.839 358.733 257.737C357.272 257.103 355.66 257.17 354.111 256.855C351.148 256.387 348.41 255.047 345.559 254.321C341.725 253.271 337.791 252.688 333.867 252.314C333.215 252.286 332.761 252.038 332.333 251.495C335.989 251.191 339.578 251.982 343.206 252.33C346.145 252.737 349.048 252.872 351.938 253.156C354.742 253.402 357.308 254.668 359.937 255.553C360.769 253.871 362.031 252.376 362.409 250.446C359.25 249.842 356.09 249.238 352.994 248.252C345.881 245.933 338.241 245.887 330.835 245.535C330.121 245.532 329.335 245.344 328.709 245.021C330.078 244.338 331.677 244.419 333.142 244.34C339.196 244.157 345.244 245.401 351.287 245.01C355.817 244.574 360.305 245.295 364.68 246.274C365.718 245.295 366.095 243.722 366.716 242.408C366.692 242.347 366.619 242.162 366.595 242.1C361.896 241.747 357.11 241.714 352.476 240.624C348.162 239.621 343.684 239.466 339.294 238.991C332.862 238.397 326.415 238.307 319.88 238.537C316.68 238.732 313.384 238.324 310.146 238.962C306.746 239.734 303.227 239.842 299.731 240.011C296.249 240.032 292.668 240.164 289.253 239.091C285.396 237.623 281.213 237.494 277.133 236.541C268.366 235.088 260.003 231.767 251.3 229.933C235.432 226.37 219.108 225.622 203.1 222.968C196.559 221.919 190.043 220.931 183.551 220.004C184.314 222.48 184.807 224.991 185.386 227.54C193.185 227.808 201.045 228.408 208.679 229.881C214.063 230.889 219.548 231.43 224.87 232.818C228.298 233.744 231.777 234.435 235.345 234.451C244.167 234.601 253.009 235.525 261.613 237.469C268.447 238.902 275.295 240.186 282.116 241.766C282.927 242.016 283.85 242.008 284.412 242.711C282.64 242.913 280.833 242.486 279.086 242.393C268.755 241.486 258.424 240.58 248.245 238.616C243.98 237.736 239.688 237.152 235.436 236.124C228.715 234.078 221.611 235.03 214.689 233.918C208.331 233.152 201.897 232.914 195.527 232.296C192.427 232.024 189.291 231.838 186.154 231.652C186.794 234.176 187.164 236.737 187.952 239.274C191.632 239.032 195.372 239.122 199.088 239.151C203.775 239.294 208.475 239.29 213.198 239.705C222.926 240.707 232.488 242.914 242.255 243.473C256.068 244.358 269.789 246.632 283.374 249.103C285.009 249.455 286.755 249.548 288.402 250.109C286.773 251.037 284.905 250.635 283.145 250.689C274.929 250.087 266.802 248.809 258.6 247.703C248.984 246.443 239.459 244.15 229.689 244.304C221.321 244.402 212.919 244.23 204.555 243.615C199.327 243.186 194.059 243.557 188.78 243.718C188.97 245.281 189.369 246.833 189.767 248.385C197.596 247.644 205.389 249.339 213.228 249.164C222.198 248.97 231.161 250.559 239.975 252.135C248.962 253.786 258.144 253.224 267.169 254.432C274.043 255.421 280.966 256.178 287.689 257.868C287.762 258.053 288.055 258.435 288.214 258.657C279.529 258.312 270.859 257.462 262.203 256.108L262.313 256.206ZM294.393 295.242C295.533 296.145 296.522 297.749 298.172 297.596C307.264 297.71 316.111 294.858 324.591 291.795C319.099 292.681 313.559 293.444 308.091 294.392C303.56 295.184 298.994 295.348 294.393 295.242ZM399.761 203.585C396.175 207.493 393.14 211.895 389.725 215.878C386.768 219.395 383.48 222.616 380.695 226.208C378.296 228.793 377.271 232.331 375.46 235.324C381.272 229.114 388.125 223.916 393.055 216.914C398.257 209.519 404.575 202.966 410.61 196.239C412.849 193.789 415.001 191.302 417.35 188.95C417.647 188.619 418.129 188.215 417.996 187.698C417.731 186.307 417.135 184.976 416.661 183.596C411.437 190.572 405.623 197.14 399.737 203.523L399.761 203.585ZM415.611 182.017C414.412 180.425 412.596 179.433 410.753 178.736C410.636 182.77 409.572 186.751 407.82 190.434C410.331 187.591 412.903 184.724 415.611 182.017ZM284.91 122.523C290.489 121.317 296.104 120.383 301.659 119.115C309.062 117.475 316.998 117.547 324.096 120.37C329.009 122.347 332.286 126.679 335.479 130.617C338.902 135.319 341.758 140.387 344.836 145.296C344.945 140.34 344.981 135.198 343.009 130.564C341.051 125.783 337.266 122.15 333.492 118.726C327.487 113.62 321.21 108.549 313.867 105.466C310.343 103.937 306.257 104.055 302.585 105.22C299.492 106.227 296.509 107.333 293.308 107.885C289.736 108.583 286.15 109.785 283.456 112.344C277.995 117.277 274.236 123.817 271.326 130.52C274.57 126.106 279.773 123.767 284.996 122.56L284.91 122.523ZM276.509 135.168C277.125 134.925 277.68 134.706 278.321 134.524C278.342 132.593 278.658 130.688 278.68 128.757C277.753 129.478 276.852 130.262 275.864 131.008C276.375 132.301 276.577 133.717 276.447 135.192L276.509 135.168ZM274.391 132.871C273.499 134.22 272.631 135.631 271.825 137.017C272.873 136.604 273.896 136.128 274.919 135.653C274.702 134.742 274.522 133.745 274.367 132.809L274.391 132.871ZM280.844 134.24C281.571 134.096 282.322 134.013 283.048 133.868C283.133 131.556 283.132 129.207 283.278 126.87C282.23 127.284 281.121 127.722 280.073 128.135C280.162 130.165 280.423 132.27 280.906 134.216L280.844 134.24ZM283.498 180.121C280.457 180.538 277.406 180.389 274.354 180.597C272.237 180.65 270.338 181.613 268.305 182.059C269.914 182.706 271.46 183.734 273.244 183.742C275.704 183.839 277.889 185.041 280.288 185.162C284.654 185.575 288.845 183.921 293.164 183.854C297.877 183.702 302.585 184.621 307.225 184.284C308.062 184.239 308.899 184.193 309.71 184.443C306.985 185.661 303.86 185.684 300.905 186.139C297.249 186.442 293.554 187.189 289.887 187.283C286.429 187.367 282.939 186.466 279.515 187.176C281.393 188.144 283.445 188.83 285.347 189.859C289.029 191.966 293.486 191.346 297.523 191.106C301.683 190.816 305.572 193.269 309.808 192.451C312.69 191.812 315.709 190.976 318.646 191.74C318.719 191.924 319.05 192.221 319.123 192.406C314.892 194.503 310.123 193.609 305.64 194.524C302.918 195.029 300.148 195.41 297.331 195.312C301.802 196.893 306.564 196.865 311.073 198.361C314.733 199.693 318.639 198.579 322.294 198.275C323.636 198.244 325.09 197.598 326.343 198.244C321.864 200.795 316.637 200.366 311.689 200.824C314.172 201.339 316.466 202.641 319.05 202.689C321.277 202.736 323.478 203.077 325.716 203.333C327.179 203.61 328.634 202.965 329.99 202.43C330.725 200.502 331.043 198.24 330.055 196.279C328.52 193.111 325.972 190.628 323.534 188.243C318.903 184.09 314.321 179.703 308.687 176.8C298.399 172.031 286.54 171.585 275.457 173.468C268.451 174.667 261.454 176.432 254.33 176.254C256.481 176.829 258.445 177.834 260.497 178.519C263.857 178.19 267.205 178.008 270.512 178.625C274.286 179.343 278.13 178.252 281.896 178.047C286.289 177.808 290.634 177.446 294.991 177.293C295.68 177.235 296.319 177.41 296.846 177.842C292.4 178.672 287.93 179.439 283.449 179.998L283.498 180.121ZM359.587 169.311C358.166 173.29 357.347 177.53 356.098 181.584C358.292 177.94 359.48 173.911 361.245 170.08C363.025 165.746 365.468 161.648 367.505 157.426C369.205 154.334 368.459 150.64 368.635 147.295C366.299 154.911 362.869 162.104 359.587 169.311ZM367.889 143.602C367.92 142.236 367.361 140.819 367.059 139.514C366.336 141.651 365.588 143.727 364.754 145.765C364.733 147.696 364.921 149.616 364.69 151.558C365.871 148.956 367.052 146.353 367.828 143.626L367.889 143.602ZM356.853 183.137C356.243 184.66 355.069 185.835 354.631 187.432C354.267 188.858 353.88 190.221 353.369 191.634C357.299 185.168 361.033 178.567 364.706 171.99C365.773 170.002 366.153 167.716 366.619 165.467C366.83 165.099 367.25 164.719 366.956 164.337C364.489 171.079 359.369 176.518 356.877 183.199L356.853 183.137ZM355.774 190.328C354.001 193.236 353.001 196.479 350.946 199.213C357.384 193.324 361.371 185.199 363.797 176.906C361.253 181.471 358.342 185.825 355.712 190.352L355.774 190.328ZM348.246 195.08C349.594 190.916 350.795 186.739 351.996 182.562C349.963 188.421 346.678 193.634 343.933 199.133C342.53 201.894 341.751 205.335 339.122 207.156C339.748 207.479 340.786 206.499 341.367 205.985C344.016 202.59 346.96 199.22 348.308 195.056L348.246 195.08ZM339.881 202.584C344.469 197.782 345.694 190.96 348.784 185.254C348.538 185.351 347.983 185.57 347.712 185.606C348.151 186.358 347.472 186.983 347.149 187.609C343.838 193.117 340.527 198.626 336.493 203.565C335.924 204.288 335.207 204.999 334.92 205.895C337.025 205.634 338.399 203.881 339.857 202.522L339.881 202.584ZM342.94 190.481C340.531 192.5 338.061 194.543 335.054 195.588C335.832 197.559 335.699 199.748 334.988 201.738C338.031 198.258 340.486 194.369 342.94 190.481ZM321.088 177.174C320.527 176.114 320.115 174.71 318.987 174.016C315.114 173.408 311.168 172.616 307.243 172.599C310.572 173.634 313.74 175.161 316.933 176.393C318.222 176.952 319.685 177.229 321.064 177.112L321.088 177.174ZM288.073 167.348C292.353 167.724 296.607 168.394 300.885 169.127C304.586 169.66 308 171.089 311.602 171.732C313.914 172.173 316.238 172.466 318.524 172.845C318.22 172.253 317.829 171.624 317.5 170.971C314.303 170.453 311.056 170.168 307.824 169.379C303.386 168.424 299.212 166.512 294.724 165.791C291.208 165.185 287.754 164.555 284.262 164.01C285.437 165.184 286.488 166.763 288.035 167.434L288.073 167.348ZM289.507 163.222C293.266 164.444 297.263 165.002 301.223 165.29C305.983 165.619 310.716 166.599 315.273 168.218C314.295 166.824 313.095 165.588 311.821 164.525C307.751 163.781 303.844 162.546 299.788 161.655C294.76 160.649 289.833 159.176 284.718 158.489C282.837 158.235 280.944 157.772 279.051 157.308C279.797 158.296 280.394 159.627 281.672 159.977C284.35 160.985 286.865 162.484 289.654 163.235L289.507 163.222ZM303.593 161.008C305.658 161.546 307.685 162.17 309.725 162.646C306.98 160.383 304.112 157.812 300.497 157.316C291.944 155.138 283.29 153.428 274.898 150.758C275.314 151.449 275.37 152.495 276.267 152.782C278.319 153.467 280.458 153.833 282.398 154.777C289.138 157.955 296.54 159.021 303.617 161.069L303.593 161.008ZM296.143 154.407C292.129 152.359 287.891 150.828 283.653 149.296C280.066 148.149 276.443 146.73 272.592 146.541C272.714 146.849 273.056 147.355 273.215 147.577C280.671 150.402 288.451 152.245 296.119 154.345L296.143 154.407ZM303.917 154.97C310.138 158.638 316.48 162.614 320.87 168.501C322.925 171.179 324.572 174.089 325.813 177.232C326.029 173.087 326.282 168.857 325.576 164.721C324.443 156.979 320.035 149.603 313.263 145.441C306.957 141.378 299.409 139.943 292.093 138.914C288.035 138.38 283.878 137.956 279.864 138.615C276.577 139.129 273.469 140.641 270.619 142.264C273.01 141.463 275.542 142.101 277.939 142.579C287.29 145.154 295.795 149.915 303.954 154.884L303.917 154.97ZM338.346 162.243C338.749 160.375 338.832 158.419 338.939 156.526C339.089 153.476 338.302 150.582 337.91 147.603C337.336 143.984 337.564 140.049 335.092 137.037C334.885 139.397 335.329 141.786 335.182 144.122C335.313 150.408 334.054 156.603 334.332 162.902C334.527 166.101 334.487 169.25 334.005 172.36C334.698 171.588 335.28 170.717 335.605 169.734C336.539 167.229 337.56 164.761 338.261 162.206L338.346 162.243ZM339.495 164.068C341.234 160.533 341.794 156.538 342.021 152.603C342.205 150.18 341.366 147.876 340.737 145.561C341.171 150.09 340.006 154.538 339.998 159.027C339.941 160.688 339.613 162.384 339.495 164.068ZM303.289 136.417C304.64 136.952 306.103 137.229 307.43 137.702C307.817 136.339 307.762 134.936 307.584 133.582C307.048 129.877 307.115 126.077 307.563 122.339C305.801 122.75 303.905 123 302.119 123.349C302.419 127.717 302.866 132.098 303.289 136.417ZM300.765 123.527C298.819 124.011 296.824 124.371 294.829 124.731C295.638 128.044 295.511 131.512 296.197 134.873C297.413 135.248 298.704 135.45 299.995 135.652C300.684 135.594 300.43 134.769 300.531 134.302C300.904 130.736 300.539 127.106 300.765 123.527ZM309.428 133.923C309.237 135.422 309.279 136.973 309.444 138.474C310.905 139.108 312.391 139.803 313.815 140.523C313.191 134.431 314.265 128.31 313.703 122.194C312.276 122.188 310.824 122.12 309.384 122.261C309.76 126.101 309.951 130.013 309.466 133.837L309.428 133.923ZM316.894 142.369C318.119 143.666 319.776 144.436 320.864 145.929C321.75 140.594 321.333 135.205 320.853 129.84C320.592 127.735 320.664 125.57 320.046 123.464C318.659 122.659 316.9 122.713 315.351 122.398C316.046 129.031 317.393 135.692 316.956 142.345L316.894 142.369ZM323.732 145.794C324.144 147.198 323.287 148.818 324.401 150.016C325.648 151.731 326.735 153.581 327.451 155.577C327.676 152.355 328.133 149.184 328.062 145.936C328.016 140.044 327.17 134.111 326.643 128.266C326.499 127.54 326.676 126.544 325.878 126.147C324.701 125.33 323.413 124.414 321.937 124.285C323.331 131.425 321.906 138.824 323.695 145.88L323.732 145.794ZM329.799 145.464C329.857 151.565 331.404 157.649 330.6 163.734C329.86 166.732 330.572 169.798 330.337 172.811C331.166 169.137 332.019 165.524 332.615 161.799C333.4 156.932 333.005 151.961 332.991 147.052C332.901 142.673 332.896 138.331 332.892 133.989C331.843 132.053 330.177 130.36 328.684 128.742C329.569 134.232 329.641 139.83 329.837 145.378L329.799 145.464ZM290.516 134.196C291.487 134.311 292.458 134.426 293.43 134.541C293.592 131.344 293.878 128.098 293.266 124.921C292.059 125.113 290.79 125.329 289.584 125.52C289.742 128.448 289.901 131.377 290.454 134.221L290.516 134.196ZM287.908 125.968C286.95 125.705 285.827 126.291 284.867 126.385C284.942 128.919 284.893 131.502 285.447 133.989C286.308 134.006 287.17 134.022 288.031 134.038C288.326 131.357 288.573 128.554 287.908 125.968ZM268.16 125.93C267.478 124.562 266.672 123.242 266.174 121.801C267.9 121.12 268.282 123.532 268.929 124.63C269.302 123.771 269.7 122.973 270.073 122.113C268.802 120.336 267.629 118.449 266.543 116.599C268.745 116.584 269.94 118.89 271.213 120.31C271.734 119.464 272.193 118.642 272.714 117.795C271.248 115.525 268.955 113.867 267.958 111.341C270.377 112.237 272.028 114.434 273.841 116.139C274.164 115.513 275.188 115.038 274.957 114.275C273.206 112.545 271.406 110.692 270.629 108.364C273.038 109.051 274.972 111.064 276.119 113.246C276.948 112.278 277.838 111.286 278.777 110.417C277.078 108.097 274.798 106.291 273.221 103.922C274.402 104.026 275.309 104.878 276.204 105.522C277.602 106.537 279.086 107.589 279.965 109.093C280.915 108.433 281.866 107.773 282.792 107.052C281.053 105.174 279.537 103.138 277.959 101.126C278.822 100.785 279.385 101.489 279.973 101.897C281.592 103.11 283.433 104.164 284.495 105.952C286.258 105.185 288.131 104.516 289.967 103.934C287.96 101.736 285.644 99.659 283.735 97.3504C285.149 97.5043 286.054 98.7137 287.245 99.3831C289.134 100.56 290.825 101.957 292.381 103.551C293.329 103.248 294.241 103.03 295.19 102.727C292.532 100.144 290.27 97.1208 287.871 94.2934C288.966 94.3597 289.725 95.1995 290.596 95.7814C292.999 97.5387 295.464 99.2716 297.113 101.825C298.429 102.089 299.738 101.074 301.043 100.772C298.445 98.522 296.12 95.8795 293.682 93.4947C292.703 92.4572 291.538 91.4926 290.695 90.2588C292.072 90.4986 293.113 91.5118 294.18 92.23C297.503 94.6924 300.925 97.0445 303.63 100.107C305.392 99.6965 307.213 99.6184 309.021 99.6878C304.855 95.9916 300.405 92.4787 296.536 88.4517C297.275 88.1597 297.814 88.8017 298.354 89.087C302.574 91.8363 306.756 94.6715 310.407 98.144C311.436 98.9481 312.218 100.206 313.558 100.532C316.237 101.183 318.58 102.608 320.924 104.033C318.141 101.856 315.371 99.5312 312.984 96.913C310.842 94.5541 308.44 92.4402 306.557 89.8365C307.873 90.1005 308.914 91.1137 310.005 91.8935C313.573 94.6153 317.066 97.509 320.04 100.892C324.14 105.683 329.352 109.322 333.848 113.672C331.49 110.045 329.552 106.039 326.429 102.999C323.857 100.454 321.26 97.8472 318.602 95.2647C317.782 94.4492 316.961 93.6339 316.363 92.6595C317.532 92.5539 318.302 93.6028 319.074 94.295C322.136 97.359 325.396 100.203 328.458 103.267C330.589 105.416 333.016 107.235 335.147 109.385C331.34 102.627 325.669 97.104 320.231 91.6309C318.124 89.5428 316.414 87.0136 313.911 85.3666C311.629 83.9174 308.85 83.733 306.216 83.9183C299.36 84.4171 292.524 86.0477 286.041 88.3933C281.653 89.9116 277.79 92.5762 274.036 95.3397C270.593 97.6248 267.957 100.873 265.837 104.345C263.962 108.076 262.957 112.389 263.75 116.562C264.257 121.276 265.183 125.967 266.379 130.622C266.903 129.062 267.685 127.614 268.062 126.041L268.16 125.93ZM339.862 108.877C342.817 113.834 345.734 118.878 348.343 124.044C350.623 128.556 351.743 133.739 351.178 138.805C350.754 142.604 349.482 146.239 348.248 149.789C345.31 157.144 342.691 164.587 339.127 171.619C336.894 175.706 334.549 179.693 331.641 183.334C330.837 184.363 329.884 185.38 328.749 186.113C329.921 188 331.761 189.411 332.896 191.384C336.138 190.033 338.782 187.707 341.682 185.85C347.693 181.768 352.519 175.947 355.085 169.094C357.691 161.799 360.58 154.32 360.555 146.497C360.651 141.688 359.184 137.069 357.888 132.524C356.749 128.915 355.399 125.317 353.298 122.159C349.695 116.46 345.449 111.3 341.463 105.895C339.104 102.624 335.979 99.9415 332.245 98.4244C335.369 101.464 337.812 105.128 339.985 108.828L339.862 108.877ZM362.753 136.728C362.883 135.252 363.824 134.026 364.249 132.576C363.546 130.433 361.942 128.716 360.571 127.05C361.541 130.227 362.24 133.441 362.815 136.703L362.753 136.728ZM363.362 138.268C363.196 139.473 363.781 140.594 364.157 141.728C364.805 140.119 365.452 138.511 365.952 136.889C365.893 136.2 365.564 135.547 365.358 134.845C364.75 136.011 363.97 137.102 363.447 138.305L363.362 138.268ZM373.304 148.656C373.803 157.859 370.501 166.64 367.312 175.163C364.742 182.729 361.791 190.232 357.736 197.102C354.697 202.218 350.102 206.097 345.154 209.261C349.766 209.577 354.353 210.188 358.931 209.876C361.899 209.273 364.906 208.229 367.143 206.135C371.735 202.97 375.618 198.731 378.335 193.884C379.44 191.81 380.459 189.698 381.453 187.526C383.53 182.86 386.184 178.395 387.339 173.381C387.865 171.464 386.716 169.639 385.998 168C380.206 156.756 376.128 144.622 369.436 133.805C371.37 138.524 373.254 143.478 373.243 148.681L373.304 148.656ZM337.298 213.003C327.746 211.362 318.495 208.32 309.38 205.082C301.297 202.291 293.401 199.071 285.592 195.531C277.979 192.127 270.601 188.417 262.852 185.209C255.817 182.004 248.545 179.463 241.347 176.75C232.81 173.711 224.323 170.439 215.586 167.977C207.132 165.689 198.077 165.489 189.601 167.839C186.065 168.807 182.98 170.737 179.895 172.667C186.342 172.757 192.532 175.084 198.377 177.619C206.689 181.531 214.59 186.387 221.997 191.795C228.558 196.326 234.823 201.188 241.347 205.804C245.04 208.121 248.683 210.671 252.736 212.275C256.861 214.065 260.987 215.854 265.225 217.386C270.151 219.216 274.641 221.929 278.624 225.342C281.958 228.013 284.723 231.408 288.627 233.356C291.217 234.684 294.182 234.795 296.975 234.832C302.389 234.831 307.817 234.326 313.077 233.033C316.661 232.188 320.16 231.305 323.78 230.731C333.471 229.113 343.445 230.018 353.147 228.609C358.256 228.016 363.417 226.833 367.957 224.258C372.88 221.389 377.815 218.372 382.14 214.529C384.784 212.203 386.938 209.359 389.251 206.737C385.365 208.983 381.282 211.093 376.848 212.131C372.414 213.17 367.944 213.937 363.462 214.496C354.735 215.306 345.954 214.358 337.274 212.942L337.298 213.003ZM242.603 139.509C243.819 142.589 245.59 145.451 247.781 147.933C251.978 152.97 256.841 157.531 262.127 161.355C265.083 163.25 268.15 165.244 271.554 166.107C263.995 161.756 256.734 156.718 250.908 150.259C248.313 147.296 245.744 144.037 244.47 140.268C243.638 136.537 241.464 133.194 240.879 129.366C241.6 130.291 242.26 131.241 242.859 132.216C242.982 132.167 243.155 131.885 243.254 131.775C242.838 128.735 243.025 125.599 242.67 122.534C241.911 124.401 240.611 125.982 239.508 127.699C237.14 131.625 234.465 135.316 231.815 139.068C232.374 140.485 232.577 141.9 232.988 143.305C234.871 148.614 237.838 153.425 240.72 158.198C243.493 162.515 246.327 166.808 249.606 170.784C250.633 172.301 252.691 171.56 254.277 171.788C250.732 169.485 248.436 165.834 246.127 162.33C243.378 158.074 240.691 153.794 238.028 149.576C236.344 146.751 234.45 143.938 233.394 140.723C233.779 140.073 234.212 139.546 234.706 138.995C235.947 142.137 237.742 145.06 239.29 148.08C241.974 153.074 244.99 158.007 248.649 162.403C251.696 165.971 255.596 168.633 259.646 170.951C260.603 171.57 261.725 170.984 262.723 170.804C256.167 167.553 250.877 162.093 246.895 155.974C243.877 151.397 241.229 146.674 238.433 141.939C237.603 140.557 237.056 138.993 236.387 137.477C235.996 136.848 236.466 136.235 236.776 135.756C239.938 143.766 245.085 150.849 251.024 157.05C254.147 160.09 257.332 163.105 261.062 165.335C263.43 166.822 265.846 168.432 268.638 168.825C265.8 167.952 263.372 166.133 260.931 164.462C256.492 161.158 252.599 157.069 249.174 152.724C246.495 149.367 244.79 145.411 242.395 141.87C240.685 139.341 239.035 136.787 237.978 133.929C238.337 133.574 238.671 133.157 238.968 132.826C240.015 135.119 241.346 137.228 242.555 139.386L242.603 139.509ZM232.591 109.636C232.515 112.87 232.524 116.142 233.014 119.367C233.456 122.112 234.354 124.749 234.944 127.507C235.241 127.176 235.538 126.845 235.835 126.514C233.996 122.398 235.284 117.901 235.599 113.647C236.254 105.199 236.675 96.701 238.596 88.3941C239.352 84.535 240.747 80.8509 241.823 77.0793C239.095 79.0108 236.07 81.2733 235.377 84.7513C233.555 92.9479 232.814 101.358 232.554 109.722L232.591 109.636ZM231.548 95.8051C230.721 99.1227 230.569 102.529 230.246 105.861C229.712 112.268 229.621 118.713 229.505 125.096C229.54 128.073 229.452 131.099 230.239 133.993C230.933 132.865 232.352 131.948 231.94 130.544C231.084 118.99 229.821 107.311 231.548 95.8051ZM214.554 146.594C214.434 145.929 214.067 145.362 213.738 144.708C212.731 144.323 212.355 143.189 211.805 142.338C208.375 136.357 205.736 129.851 204.364 123.129C204.294 130.349 201.862 137.362 200.463 144.466C199.191 150.807 197.033 157.071 193.513 162.591C195.398 162.132 197.318 161.944 199.287 161.878C198.7 161.113 198.236 160.299 197.957 159.412C199.445 159.751 200.225 161.366 201.749 161.619C203.016 161.759 204.271 161.691 205.476 161.856C203.186 159.485 200.441 157.221 199.262 154.055C200.516 154.343 201.372 155.43 202.34 156.258C204.777 158.643 207.4 160.955 210.556 162.272C211.858 162.684 213.186 162.8 214.489 163.212C210.427 158.336 204.45 154.927 201.796 148.924C201.846 148.691 201.971 148.286 202.046 148.114C205.278 151.609 208.584 154.932 211.915 158.317C214.916 161.406 218.92 162.887 222.577 164.933C223.657 165.503 224.737 166.074 225.855 166.559C222.729 163.876 219.901 160.862 216.875 158.069C211.716 153.482 207.09 148.259 203.697 142.192C204.744 142.135 205.342 143.109 206.004 143.703C209.297 147.174 212.529 150.669 215.885 154.116C218.26 156.525 220.476 159.068 223.271 161.098C226.03 163.214 229.184 164.888 232.253 166.525C226.392 162.145 220.383 157.752 216.13 151.669C214.039 148.72 212.295 145.563 209.945 142.859C207.95 140.513 205.869 138.13 204.85 135.186C205.035 135.113 205.466 134.942 205.651 134.869C208.635 138.819 211.26 143.123 214.627 146.779L214.554 146.594ZM202.014 207.944C211.647 210.693 221.13 214.142 231.077 215.698C238.159 216.677 245.242 217.655 252.112 219.358C257.089 220.597 262.067 221.837 266.945 223.187C267.205 222.942 266.11 222.876 266 222.777C261.344 221.268 256.7 219.612 252.057 217.955C247.943 216.375 244.399 213.715 240.434 211.791C233.369 209.595 226.068 208.062 219.128 205.461C215.776 204.007 212.386 202.639 208.959 201.357C198.996 197.955 188.329 197.822 177.977 196.141C178.518 198.776 178.974 201.373 179.515 204.008C187.054 204.877 194.641 205.87 201.928 207.907L202.014 207.944ZM181.119 208.431C181.02 208.541 180.822 208.762 180.785 208.847C181.438 211.224 181.821 213.637 182.782 215.892C191.109 216.593 199.309 218.056 207.522 219.371C218.242 221.263 228.862 223.623 239.394 226.301C246.227 228.09 253.246 229.449 260.28 230.304C267.191 231.208 274.014 232.431 280.798 234.097C278.899 232.354 277.161 230.477 275.2 228.759C274.624 228.203 273.888 227.781 273.064 227.679C264.225 226.041 255.438 223.813 246.713 221.561C238.54 219.446 230.481 216.717 222.158 215.302C214.192 213.89 206.288 212.096 198.247 210.855C192.53 209.908 186.8 209.108 181.033 208.393L181.119 208.431ZM199.04 196.442C204.079 197.658 208.969 199.217 213.997 200.223C219.811 201.417 225.5 203.016 231.201 204.825C229.792 203.601 228.246 202.573 226.8 201.435C225.082 200.333 223.042 199.857 221.162 199.246C213.154 196.283 205.02 193.726 197.049 190.677C192.333 188.836 187.278 188.481 182.286 187.746C180.49 187.529 178.709 186.808 176.888 186.886C177.25 188.523 177.094 190.294 177.664 191.92C184.87 192.85 191.924 194.837 198.979 196.467L199.04 196.442ZM187.549 185.739C192.487 187.422 197.75 188.121 202.851 189.312C207.57 190.44 212.264 191.863 216.734 193.802C213.998 192.104 211.61 189.486 208.365 188.845C204.26 187.83 200.193 186.73 196.25 185.224C192.321 183.571 188.342 181.794 184.001 181.443C181.491 181.223 179.007 181.065 176.473 180.783C176.532 181.472 176.59 182.161 176.673 182.912C180.361 183.592 184.06 184.482 187.61 185.715L187.549 185.739ZM187.695 180.697C192.867 182.429 198.265 183.289 203.461 185.084C197.546 181.65 191.111 179.063 184.387 177.73C182.248 177.364 180.034 177.17 177.818 177.332C181.198 178.134 184.515 179.317 187.695 180.697ZM359.24 233.396C355.894 233.221 352.691 234.13 349.343 234.312C344.001 234.854 338.649 234.831 333.271 235.102C329.086 235.33 324.986 235.952 320.91 236.635L320.983 236.82C324.464 237.155 328.043 237.38 331.537 237.567C336.47 237.613 341.391 237.807 346.336 238.063C350.629 238.291 354.879 237.325 359.147 237.492C362.42 237.481 365.692 237.828 368.976 238.027C369.707 236.812 370.291 235.585 370.851 234.296C370.817 233.668 369.967 233.861 369.562 233.736C366.167 233.439 362.672 233.608 359.227 233.543L359.24 233.396ZM372.962 230.258C373.805 228.786 374.587 227.337 375.393 225.951C372.161 227.868 368.891 229.871 365.402 231.319C367.21 231.389 368.944 231.63 370.717 231.429C371.481 231.199 372.527 231.142 372.924 230.344L372.962 230.258ZM410.068 201.723C406.691 205.62 403.363 209.64 399.703 213.363C394.907 218.177 389.669 222.594 385.755 228.198C382.115 233.053 378.414 237.933 374.357 242.454C372.045 244.72 370.653 247.69 368.587 250.215C374.412 243.857 381.081 238.375 387.261 232.375C390.809 228.909 393.891 224.987 397.107 221.224C403.54 213.7 410.439 206.633 416.921 199.232C417.818 196.812 417.99 194.181 418.248 191.586C415.758 195.204 412.827 198.426 410.092 201.785L410.068 201.723ZM401.467 220.358C397.029 224.816 392.04 228.779 387.981 233.657C382.698 239.944 377.856 246.627 372.156 252.58C368.99 256.109 365.162 259.044 362.388 262.845C368.974 256.97 375.559 251.094 382.145 245.219C386.049 241.755 390.052 238.181 393.356 234.099C395.794 231.072 398.06 227.969 400.609 225.041C404.307 220.875 408.153 216.722 411.827 212.494C414.398 209.984 414.846 206.246 416.054 202.992C411.511 208.987 406.82 214.969 401.443 220.296L401.467 220.358ZM401.536 229.375C398.013 232.902 393.755 235.651 390.232 239.178C384.855 244.505 380.25 250.525 374.959 255.889C372.003 259.05 368.827 262.013 365.651 264.975C372.775 259.742 380.292 254.781 386.314 248.202C391.064 242.909 396.058 237.875 401.076 232.903C402.721 231.114 404.734 229.536 405.876 227.376C407.08 225.192 408.369 223.045 409.291 220.687C406.853 223.715 404.28 226.582 401.536 229.375ZM397.947 239.052C394.361 242.96 390.578 246.732 386.441 250.146C381.562 254.208 377.355 259.073 372.88 263.617C379.681 259.01 386.385 254.156 391.644 247.807C394.81 244.278 397.315 240.156 400.371 236.529C400.186 236.602 399.816 236.748 399.545 236.783C399.392 237.841 398.455 238.353 397.886 239.076L397.947 239.052ZM207.611 68.011C205.335 65.135 202.371 62.3174 198.547 61.8332C191.882 60.8322 185.435 63.4485 178.841 63.3458C175.407 63.4906 171.682 62.8961 168.683 64.8634C165.288 67.2717 163.854 71.3985 162.311 75.0696C158.521 85.6808 155 96.6131 154.985 107.942C155.348 111.929 155.402 116.038 157.034 119.809C158.298 123.013 159.501 126.241 160.828 129.42C159.764 122.576 158.886 115.659 158.66 108.77C158.563 108.524 158.467 107.92 158.345 107.612C158.592 107.515 159.023 107.345 159.208 107.272C159.599 110.607 160.679 113.884 161.34 117.183C162.823 123.648 164.393 130.149 165.629 136.711C165.942 138.225 165.812 139.701 165.978 141.202C166.887 144.048 168.475 146.626 169.237 149.458C168.991 141.437 167.428 133.508 165.89 125.641C164.449 118.021 163.316 110.279 162.688 102.551C162.631 101.505 162.464 100.361 162.85 99.3538C164.044 102.016 164.312 105.043 165.013 107.9C167.48 119.744 168.384 131.778 171.036 143.549C172.278 149.041 173.704 154.459 174.552 160.035C175.102 163.593 175.023 167.184 175.388 170.815C176.303 169.884 177.328 169.052 178.291 168.244C177.256 158.042 178.24 147.542 175.309 137.59C173.167 129.819 171.395 121.902 169.956 113.924C168.288 104.827 166.201 95.7519 164.78 86.557L165.211 86.3867C166.5 89.6521 167.111 93.1852 168.154 96.5479C170.57 106.276 173.194 115.993 175.24 125.867C176.709 132.836 176.946 139.934 178.686 146.867C180.22 153.098 182.073 159.416 182.067 165.899C182.992 165.534 183.916 165.169 184.841 164.804C184.201 159.573 183.351 154.354 182.797 149.161C182.18 144.349 181.919 139.538 181.363 134.701C180.96 131.513 179.854 128.532 179.056 125.429C176.032 116.866 174.622 107.881 173.113 99.0052C172.504 95.1154 171.87 91.164 171.532 87.2386C171.522 86.6727 171.475 86.1929 171.342 85.6757L171.712 85.5297C172.952 88.6719 173.466 91.9583 174.522 95.1734C176.446 102.033 178.186 108.966 179.593 115.959C180.907 121.636 181.372 127.505 182.995 133.06C183.61 135.88 185.049 138.444 185.602 141.288C187.488 148.591 187.772 156.17 188.008 163.625C189.593 161.504 190.957 159.185 192.04 156.693C191.912 152.399 192.264 148.058 191.656 143.812C190.618 137.03 189.037 130.319 186.47 123.997C183.774 116.445 182.026 108.59 180.131 100.721C178.876 95.3771 177.56 90.0574 176.305 84.7134C175.914 84.0844 176.261 83.52 176.609 82.9557C178.314 86.555 179.157 90.4949 180.617 94.1915C184.605 104.296 188.482 114.658 189.908 125.489C190.501 130.239 191.427 134.93 192.476 139.572C193.282 143.598 194.506 147.601 194.708 151.722C195.342 150.261 196.333 148.802 196.624 147.192C196.662 138.987 196.233 130.683 194.018 122.727C192.76 118.096 190.677 113.72 189.086 109.15C185.903 100.365 184.248 91.12 181.62 82.1167C181.085 80.7613 180.883 79.3458 180.532 77.9174L180.841 77.7957C182.821 80.6459 183.777 83.9712 185.079 87.089C188.656 95.789 191.949 104.672 193.481 113.966C194.807 122.558 197.808 130.702 199.466 139.234C200.234 135.584 201.014 131.786 199.936 128.153C199.568 122.53 197.662 117.158 196.814 111.582C196.023 107.052 195.17 102.546 193.8 98.1734C192.727 93.4698 190.52 89.1425 188.892 84.6579C188.177 82.3053 186.562 80.3794 185.81 78.1127C185.153 76.4493 184.472 74.7242 183.816 73.0607L184.185 72.9147C186.115 75.9984 187.823 79.2409 189.099 82.6538C191.34 87.6085 193.211 92.7093 195.328 97.7127C197.577 103.59 200.097 109.432 201.298 115.723C201.177 112.708 202.016 109.6 200.934 106.68C199.091 100.927 198.258 94.8471 196.267 89.0816C193.841 84.1999 191.97 79.0993 189.852 74.0959C189.708 73.3695 189.059 72.6286 189.481 71.8924C194.174 78.7276 197.238 86.4905 200.439 94.0572C200.876 92.8167 201.546 91.6265 202.24 90.4979C199.712 83.7337 195.507 77.774 193.189 70.9984C193.446 71.1103 193.962 71.3339 194.22 71.4458C197.578 76.8851 200.677 82.5694 204.319 87.8255C204.739 87.446 205.16 87.0665 205.555 86.6254C203.326 81.8798 201.528 76.964 199.199 72.3287C198.98 71.7742 198.97 71.2082 199.232 70.6066C202.177 74.9986 204.109 80.075 207.684 84.0762C208.154 83.4632 209.03 82.975 209.046 82.114C207.034 78.2797 205.675 74.116 204.094 70.1113C205.323 70.3381 205.687 71.619 206.298 72.4458C207.775 74.9248 209.598 77.1961 211.075 79.6751C211.619 79.2469 212.224 78.7945 212.289 78.0568C211.653 74.4622 210.144 70.999 207.807 68.1473L207.611 68.011ZM257.053 66.9366C249.483 65.0829 241.197 63.5827 233.726 66.6743C229.548 68.1812 225.49 70.3529 222.301 73.4633C217.766 77.6748 214.701 83.086 210.693 87.7304C208.825 90.0348 206.65 92.104 205.284 94.7795C203.966 97.5783 204.813 100.805 205.181 103.722C206.633 111.551 207.753 119.441 210.363 126.956C213.878 138.386 221.19 148.247 229.258 156.954C233.888 161.464 238.778 165.73 243.977 169.517C240.293 165.416 237.288 160.692 234.69 155.736C232.848 152.333 231.327 148.66 230.409 144.892C227.608 136.171 226.125 127.001 225.503 117.846C224.855 108.987 225.561 99.9488 227.865 91.3484C229.077 87.3806 230.364 83.2409 232.779 79.795C235.628 75.8221 239.91 73.1347 244.153 70.89C248.246 68.989 252.537 67.2243 257.053 66.9366ZM243.872 75.7721C243.549 76.3981 243.374 77.0369 243.198 77.6758C241.006 86.0183 239.539 94.5733 238.429 103.13C237.6 109.51 237.951 115.994 238.425 122.43C239.125 120.231 241.225 118.333 240.572 115.956C240.047 112.461 240.482 108.871 240.941 105.343C241.538 101.261 242.345 97.1687 243.299 93.0891C244.855 86.5642 245.686 79.827 248.201 73.5647C246.77 74.2718 245.229 74.8802 243.872 75.7721ZM250.294 73.0941C248.281 80.0844 245.715 86.937 245.078 94.167C244.635 99.5405 244.044 104.901 243.724 110.226C245.072 106.062 246.801 101.961 247.277 97.5717C248.444 90.0611 249.181 82.364 252.326 75.3541C252.886 74.065 253.532 72.8132 254.091 71.524C252.859 72.0107 251.185 72.1017 250.27 73.0325L250.294 73.0941ZM264.243 71.4333C263.296 71.3799 262.41 71.3023 261.401 71.2733C260.044 72.1652 259.568 73.8483 258.652 75.1359C260.246 73.5807 262.245 72.507 264.181 71.4576L264.243 71.4333ZM255.766 76.4886C256.477 74.499 257.531 72.6585 258.806 71.0158C257.674 71.0354 255.879 70.8184 255.601 72.281C254.604 75.1673 253.667 78.0292 252.694 80.9772C253.747 79.4934 255.192 78.282 255.791 76.5502L255.766 76.4886ZM261.924 77.8318C258.468 80.2645 255.475 83.511 253.992 87.5145C252.649 90.6084 252.289 94.0265 251.757 97.3699C250.942 103.246 249.918 109.134 248.464 114.835C247.586 118.386 246.942 121.987 246.974 125.678C246.818 130.154 247.338 134.72 248.93 138.934C250.584 143.124 253.644 146.544 256.816 149.707C263.676 156.257 271.686 161.569 280.405 165.248C272.825 157.416 267.531 147.614 264.22 137.242C261.384 127.893 260.101 118.146 260.392 108.417C260.686 100.681 261.055 92.7734 263.722 85.4539C265.431 80.578 268.454 75.9661 272.97 73.329C268.969 73.8404 265.245 75.5953 262.01 77.8691L261.924 77.8318ZM334.973 72.8509C333.727 70.7789 332.015 68.6064 329.532 68.0912C326.053 67.3993 322.46 67.3221 318.944 66.7163C314.948 66.1575 310.903 65.4754 306.866 65.716C300.294 66.0316 293.863 67.787 287.616 69.8261C281.368 71.8652 275.557 75.37 270.896 79.9869C268.298 83.1491 266.852 87.0667 265.567 90.8497C264.519 93.9694 263.987 97.3129 263.492 100.57C265.104 97.7975 267.012 95.0505 269.679 93.1433C274.42 89.6338 279.492 86.421 285.112 84.4161C291.273 82.3397 297.583 80.2763 304.13 79.8991C308.143 79.5969 312.486 79.5913 315.833 82.1153C318.837 84.4903 321.445 87.3063 324.349 89.7915C325.489 90.6944 326.271 91.9526 327.547 92.6593C331.469 93.39 335.251 95.0303 338.575 97.1361C341.029 98.6598 342.975 100.882 344.835 103.068C344.855 101.493 345.121 99.8217 344.846 98.2214C344.564 95.3418 343.124 92.7769 342.139 90.1033C340.001 84.3249 338.245 78.2529 335.083 72.9497L334.973 72.8509ZM370.589 105.506C367.513 100.24 363.673 95.2043 358.595 91.7255C354.008 88.4088 348.64 86.5401 343.843 83.5914C344.792 85.9943 345.764 88.4586 346.898 90.7884C348.813 91.6702 351.064 91.7785 352.98 92.6603C353.053 92.8451 353.346 93.2278 353.481 93.3883C351.83 93.8976 350.008 93.9757 348.262 93.8819C348.322 94.2143 348.466 94.9407 348.489 95.3591C350.996 95.9359 353.565 96.4884 356.186 96.4507C356.813 96.4165 357.415 96.6775 357.993 96.8769C355.169 98.2053 351.873 97.7971 348.892 98.5467C348.902 99.1125 348.997 99.7157 349.007 100.282C351.415 100.969 353.861 101.57 356.383 101.642C357.379 101.819 358.795 101.616 359.195 102.811C355.687 103.128 352.205 103.149 348.613 103.072C348.684 103.614 348.694 104.18 348.728 104.807C352.539 105.439 356.238 106.328 360.1 106.727C361.243 106.916 362.499 106.848 363.579 107.418C361.532 108.369 359.17 108.162 356.979 108.386C354.186 108.349 351.366 108.964 348.614 108.128C349.324 108.844 349.848 109.991 351.004 110.033C354.018 110.267 356.867 111.35 359.795 111.547C362.98 111.856 366.131 111.538 369.307 111.281C369.972 111.161 370.512 111.447 371.052 111.732C368.968 112.768 366.605 112.918 364.376 113.228C362.518 113.392 360.596 113.937 358.751 113.597C358.776 113.658 358.849 113.843 358.873 113.905C364.409 114.212 370.006 114.495 375.362 116.155C373.829 112.63 372.763 108.849 370.712 105.457L370.589 105.506ZM402.038 158.463C400.61 150.695 400.487 142.625 397.668 135.122C396.525 132.226 395.284 129.084 392.487 127.411C390.339 126.122 387.981 125.202 385.586 124.367C381.15 123.056 376.629 121.708 372.118 120.569C366.821 119.241 361.395 119.39 356.06 118.149C357.625 120.308 360.243 120.984 362.366 122.211C363.986 123.067 365.395 124.291 366.941 125.318C367.693 124.879 368.177 124.119 369.002 123.864C368.814 124.65 368.503 125.485 368.314 126.272C368.767 126.876 369.281 127.457 369.771 127.976C370.99 127.637 371.146 125.866 372.513 125.54C372.249 126.855 371.665 128.082 371.057 129.248C372.06 130.347 372.879 131.52 373.661 132.778C374.74 130.999 375.732 129.183 376.811 127.404C377.394 126.533 377.559 125.328 378.631 124.976C378.511 127.018 377.408 128.735 376.882 130.651C376.494 132.015 375.726 133.316 374.908 134.493C375.505 135.824 376.262 137.021 377.019 138.217C378.93 134.757 380.559 131.123 382.556 127.7C383.117 128.76 382.226 129.752 381.964 130.711C380.768 133.817 379.572 136.924 378.291 139.994C378.591 141.656 379.654 143.087 380.201 144.652C381.479 142.296 382.843 139.977 384.097 137.559C384.594 136.651 385.103 135.596 386.102 135.059C385.499 137.861 384.551 140.513 383.69 143.203C383.265 144.653 382.692 146.09 381.861 147.415C382.25 148.4 382.701 149.362 383.152 150.323C386.519 145.861 388.439 140.617 391.29 135.93C391.704 136.978 391.109 137.996 390.846 138.954C389.611 142.504 387.947 145.867 386.54 149.342C386.005 150.693 385.384 152.006 384.628 153.159C385.138 154.453 385.625 155.685 386.136 156.979C387.565 153.922 389.558 151.212 391.221 148.206C391.915 147.077 392.451 145.727 393.451 144.833C393.317 147.379 391.866 149.66 390.982 151.932C389.938 154.338 389.175 156.918 387.198 158.767C387.426 159.887 388.025 160.862 388.438 161.909C390.248 158.916 391.863 155.786 393.563 152.694C394.344 151.246 394.809 149.353 396.338 148.536C395.525 151.349 394.565 154.15 393.322 156.777C392.141 159.379 391.242 162.155 389.57 164.596C389.91 165.458 390.275 166.382 390.616 167.245C393.042 164.008 394.905 160.425 397.049 157.014C397.594 156.23 397.919 155.247 398.795 154.759C398.266 157.389 396.815 159.67 395.881 162.176C394.773 164.963 393.493 167.676 391.931 170.215C391.77 173.056 391.486 175.945 390.243 178.572C389.894 179.493 389.263 180.241 389.062 181.175C389.925 180.834 389.93 179.764 390.413 179.004C393.711 173.643 396.788 168.084 400.454 162.934C400.844 163.919 400.261 164.79 399.888 165.65C397.748 170.696 395.265 175.593 392.192 180.082C390.186 182.939 388.548 186.007 386.369 188.789C383.152 192.552 381.653 197.416 378.547 201.277C385.068 196.14 389.444 189 394.507 182.515C396.276 180.321 397.825 177.929 399.705 175.834C399.778 176.019 399.825 176.499 399.837 176.708C395.892 183.677 390.793 189.891 386.063 196.316C383.848 199.185 381.914 202.227 379.453 204.836C383.747 202.358 388.947 200.732 391.662 196.242C394.749 191.25 398.4 186.604 401.598 181.71C401.782 181.637 402.165 181.343 402.387 181.184C402.378 183.324 401.114 185.176 400.145 187.054C398.358 190.466 396.226 193.728 393.409 196.336C391.37 198.209 389.711 200.502 387.844 202.45C390.658 200.555 393.679 199.007 396.335 196.89C399.475 193.657 401.892 189.854 403.879 185.865C405.505 182.944 405.742 179.575 405.646 176.266C405.084 170.15 402.86 164.334 401.965 158.278L402.038 158.463ZM419.967 245.385C424.251 236.929 427.541 227.939 429.983 218.786C431.961 211.525 432.918 204.025 433.372 196.512C433.663 192.195 433.843 187.78 433.273 183.448C432.747 179.952 431.436 176.268 428.444 174.103C425.28 171.862 421.22 171.685 417.454 171.889C415.029 172.063 412.606 171.88 410.169 172.202C410.412 172.818 410.507 173.421 410.689 174.062C413.986 174.113 416.93 176.155 419.01 178.539C422.473 182.798 423.455 188.534 422.864 193.895C422.018 201.136 419.452 207.989 416.984 214.731C414.317 222.05 410.667 229.046 406.318 235.534C401.473 242.93 396.332 250.3 389.734 256.323C382.222 262.92 373.561 268.048 365.414 273.757C360.439 277.216 355.33 280.515 350.013 283.469C345.35 286.093 340.846 288.939 336.134 291.44C330.447 294.539 324.469 296.9 318.32 298.828C312.702 300.477 306.85 302.075 300.922 301.495C302.247 302.325 303.014 304.087 304.55 304.549C313.378 303.272 321.99 300.726 330.273 297.528C332.937 296.334 335.841 296.113 338.456 294.796C346.757 290.38 355.691 287.565 364.357 284.073C366.144 283.367 367.638 282.279 369.45 281.635C369.459 282.201 369.273 282.631 368.804 282.887C359.906 288.678 349.981 292.952 339.792 295.835C335.575 297.785 331.345 299.882 327.25 302.14C321.367 305.103 314.925 306.649 308.521 307.753C312.297 308.114 316.125 307.884 319.891 307.679C325.614 307.2 331.523 306.648 336.763 304.223C338.835 303.334 340.736 302.014 342.917 301.224C350.881 297.938 359.561 296.648 367.087 292.252C371.7 289.862 376.178 287.311 380.767 284.858C381.901 284.482 383.012 283.687 384.217 283.852C378.76 287.715 372.73 290.666 366.834 293.777C357.626 297.34 349.977 304.49 340.039 306.206C335.385 307.046 330.801 308.428 326.097 309.146C324.385 309.68 322.49 309.573 320.802 310.168C321.759 310.787 322.956 310.03 323.989 310.121C327.802 310.396 331.678 310.29 335.41 309.457C339.869 308.481 344.554 308.981 348.891 307.696C353.018 306.779 356.914 305.099 360.785 303.357C363.067 302.1 365.044 300.251 367.461 299.155C370.557 297.434 373.97 296.514 377.018 294.67C380.26 293.319 383.259 291.352 386.66 290.223L387.114 290.471C382.758 293.33 378.377 296.127 374.02 298.987C371.551 300.673 368.924 302.138 366.102 303.11C361.888 304.346 357.82 305.952 353.911 307.78C358.517 306.816 363.281 306.431 367.608 304.58C374.362 302.199 380.36 298.264 387.065 295.76C390.208 294.519 393.412 293.61 396.506 292.246C398.32 291.246 398.772 289.144 399.605 287.463C402.617 279.935 405.974 272.557 409.822 265.341C413.261 258.714 416.761 252.063 420.004 245.299L419.967 245.385ZM345.867 354.893C354.933 355.302 363.936 356.092 372.924 357.386C382.219 358.915 391.64 359.682 401.041 359.674C412.582 359.676 424.114 356.405 433.912 350.187C442.674 344.592 451.412 338.935 460.063 333.241C463.359 330.943 467.109 328.893 469.181 325.297C470.67 322.573 472.073 319.812 473.304 316.976C475.342 312.753 477.809 308.717 479.503 304.345C481.454 300.086 481.367 294.993 479.517 290.667C476.599 283.274 470.373 277.97 464.478 272.962C452.772 263.34 439.482 255.84 425.469 250.12C426.441 252.942 428.275 255.422 430.419 257.424C431.435 258.376 432.489 259.241 433.185 260.462C431.991 260.506 431.061 259.592 430.005 259.083C426.912 257.384 423.982 255.194 422.138 252.148C421.815 252.774 421.492 253.399 421.169 254.025C422.93 259.027 426.738 263.079 431.229 265.792C432.283 266.658 433.893 266.948 434.613 268.23C431.269 267.699 428.201 266.062 425.28 264.438C422.789 263 420.286 261.353 418.785 258.812C418.064 260.236 417.32 261.598 416.661 262.997C417.281 264.747 418.936 265.874 420.458 266.84C423.807 269.007 427.23 271.002 430.84 272.568C431.834 273.101 433.088 273.39 433.748 274.34C429.752 273.781 425.932 272.227 422.124 270.882C419.521 269.702 416.547 269.024 414.638 266.716C413.707 268.507 412.838 270.275 411.968 272.042C415.134 273.926 418.585 275.27 421.962 276.785C426.358 278.539 430.828 280.477 435.462 281.568C436.506 281.868 437.724 281.885 438.582 282.615C436.462 283.381 434.239 282.621 432.124 282.316C424.626 280.647 416.843 279.518 410.069 275.712C409.001 277.7 407.872 279.712 407.259 281.949C414.531 284.49 421.902 286.921 429.525 288.184C431.664 288.55 433.889 288.954 436.092 288.939C436.247 289.874 435.055 289.562 434.489 289.572C430.245 289.467 426.015 288.858 421.711 288.421C416.313 287.56 410.591 287.683 405.632 285.226C404.761 287.35 403.508 289.411 403.018 291.598C412.889 293.683 422.973 294.687 433.023 295.42C434.829 295.846 436.912 295.167 438.495 296.108C434.813 296.707 431.086 296.47 427.333 296.527C421.895 296.466 416.481 296.467 411.056 296.259C407.624 296.047 404.106 295.798 400.814 294.676C398.416 296.904 395.116 297.566 392.23 298.919C404.255 300.866 416.38 302.346 428.469 303.556C428.542 303.74 428.873 304.037 429.008 304.198C418.242 304.175 407.474 304.509 396.812 303.306C393.43 302.861 390.036 302.563 386.768 301.503C385.822 301.093 385.019 301.766 384.218 302.082C381.665 303.375 379.05 304.692 376.522 306.046C381.157 306.78 385.768 307.452 390.468 307.448C402.391 307.513 414.217 309.68 426.102 309.831C426.175 310.016 426.444 310.337 426.555 310.436C417.864 311.16 409.103 311.343 400.405 311.145C395.742 311.063 391.045 310.354 386.447 309.534C381.788 308.738 376.987 309.209 372.415 308.095C367.744 309.796 362.962 311.399 358.038 311.918C357.411 311.953 356.009 311.651 355.859 312.352C360.387 312.273 364.75 313.399 369.187 314.354C374.14 315.532 379.205 316.452 384.359 316.696C391.322 317.009 398.311 317.028 405.335 317.317C412.839 317.559 420.417 317.986 427.936 317.724C428.009 317.909 428.179 318.34 428.252 318.525C424.041 319.047 419.735 318.967 415.478 319.01C405.758 318.93 396.098 319.183 386.406 318.452C375.914 317.68 365.231 318.408 354.794 316.332C351.241 315.813 347.838 314.592 344.296 314.281C342.168 314.124 340.055 313.463 337.961 313.934C333.786 314.727 329.538 315.336 325.32 314.936C334.058 317.041 342.91 318.531 351.724 320.464C358.472 321.859 365.12 323.721 372.032 324.268C376.398 324.681 380.742 324.676 385.122 324.584C393.589 324.375 401.988 325.261 410.427 325.704C415.187 326.032 419.96 326.213 424.72 326.542C425.372 326.569 425.987 326.682 426.551 327.029C424.345 327.758 422.008 327.612 419.731 327.799C409.886 328.125 399.943 328.561 390.116 327.669C386.364 327.369 382.652 326.627 378.914 326.181C374.598 325.534 370.305 325.306 365.999 325.226C357.768 325.128 349.654 323.703 341.527 322.425C333.474 320.975 325.472 319.291 317.57 317.141C316.206 316.753 314.818 316.305 313.467 315.77C314.924 317.474 315.812 319.544 317.268 321.248C320.567 323.649 324.386 325.203 328.207 326.401C336.156 329.031 344.291 331.232 352.705 331.613C362.423 332.049 372.143 332.129 381.873 332.774C389.992 333.13 398.035 334.014 406.131 333.951C412.332 334.138 418.508 334.264 424.721 334.303C425.73 334.332 426.789 334.128 427.585 334.882C423.461 335.442 419.289 335.522 415.153 335.873C410.033 336.256 405.012 336.529 399.906 336.409C388.892 336.84 377.855 336.853 366.874 335.562C358.696 334.518 350.632 332.859 342.379 332.343C337.643 332.076 332.896 331.6 328.299 330.424C325.682 329.748 322.917 329.059 320.573 327.634C321.611 329.361 322.341 331.209 323.317 332.96C324.334 333.912 325.834 334.103 327.136 334.515C338.345 337.282 349.676 340.001 361.315 340.249C367.319 340.3 373.252 339.81 379.219 339.946C391.152 340.22 403.047 340.937 414.906 341.382L415.101 341.875C411.75 342.771 408.195 342.608 404.748 342.9C395.137 343.276 385.574 343.775 375.98 343.29C370.506 342.959 365.084 342.037 359.561 341.582C351.739 340.896 343.824 341.599 336.054 340.323C332.476 339.741 328.998 339.049 325.494 338.296C326.153 339.603 326.54 340.945 327.075 342.301C329.779 343.014 332.669 343.297 335.447 343.838C340.464 344.635 345.569 344.756 350.537 345.43C358.899 346.401 367.284 347.791 375.689 347.607C382.087 347.573 388.502 346.679 394.913 346.498C402.432 346.236 409.923 346.625 417.402 347.162C419.074 347.428 420.908 347.202 422.442 348.021C421.087 348.556 419.622 348.636 418.182 348.777C408.666 349.756 399.129 349.96 389.534 349.476C384.651 349.196 379.855 348.597 374.921 348.55C368.327 348.448 361.753 349.12 355.221 348.993C346.227 348.769 337.15 348.151 328.286 346.451C328.651 347.375 328.917 348.41 329.282 349.334C337.263 350.242 345.233 350.942 353.214 351.85C354.038 351.952 354.923 352.03 355.523 352.647C352.434 352.941 349.297 352.755 346.183 352.988C340.781 353.198 335.354 353.346 329.904 353.076C330.196 353.816 330.426 354.579 330.657 355.343C335.582 354.466 340.626 354.612 345.67 354.757L345.867 354.893ZM324.825 352.66C322.312 342.686 318 333.207 312.861 324.341C307.906 315.758 301.186 308.298 293.958 301.538C287.574 295.655 280.857 290.189 273.806 285.139C266.51 279.83 258.607 275.33 250.64 271.211C236.463 263.99 221.007 259.125 205.268 256.792C195.456 255.396 185.55 255.746 175.669 255.801C168.053 255.817 160.373 256.214 152.772 255.726C160.665 259.66 168.881 262.968 177.036 266.3C184.368 269.174 191.799 271.937 199.03 275.278C210.547 280.63 221.466 287.357 230.913 295.948C233.939 298.741 237.534 300.811 241.316 302.451C245.48 304.155 249.805 305.367 253.856 307.328C257.797 309.19 261.589 311.397 264.712 314.436C268.839 318.575 271.473 323.802 273.959 329.016C275.934 332.937 277.477 337.027 279.021 341.118C281.438 347.783 283.24 354.692 285.719 361.333C287.348 365.461 289.372 369.504 292.285 372.912C293.862 374.924 295.823 376.642 297.599 378.434C299.595 380.423 300.837 383.208 303.229 384.756C306.1 386.614 309.465 387.921 312.921 388.194C315.159 388.45 317.343 387.303 318.741 385.612C321.56 382.647 323.153 378.743 324.561 374.911C327.092 367.788 326.477 359.913 324.825 352.66ZM192.712 287.243C189.433 285.974 186.116 284.791 182.949 283.264C177.092 280.52 171.385 277.432 165.367 275.179C167.156 276.823 168.524 278.846 170.35 280.404C173.92 282.769 177.639 284.791 181.456 286.702C184.71 288.266 187.838 290.235 191.19 291.689C197.209 293.942 203.265 296.109 209.059 298.878C209.132 299.062 209.426 299.445 209.56 299.606C207.334 299.559 205.271 298.664 203.195 297.917C199.521 296.732 196.146 294.86 192.449 293.614C187.166 291.782 181.386 291.216 176.428 288.402C177.75 289.945 178.763 291.61 179.962 293.202C181.151 294.228 182.612 294.862 183.937 295.692C186.232 296.994 188.019 298.994 190.388 300.124C193.628 301.836 197.33 302.369 200.695 303.675C203.729 304.685 206.614 306.038 209.537 307.306C210.851 307.927 212.239 308.375 213.416 309.193C212.492 309.557 211.509 309.233 210.599 309.094C204.895 307.999 199.293 306.08 194.089 303.363C190.873 301.713 187.183 301.389 183.893 299.911C185.016 301.675 185.795 303.647 186.881 305.496C189.914 306.863 192.835 308.487 195.731 310.05C199.437 312.219 203.031 314.645 207.246 315.759C211.657 317.008 216.031 318.343 220.219 320.108C220.735 320.332 221.151 320.666 221.469 321.11C218.013 320.837 214.721 319.715 211.477 318.717C208.43 317.855 205.533 316.292 202.398 315.75C197.838 314.844 193.118 313.716 189.292 310.883C189.975 312.251 190.435 313.778 191.118 315.147C194.996 317.39 198.836 319.719 202.85 321.767C205.868 323.637 209.423 323.801 212.729 324.775C216.243 325.737 219.633 327.105 223.097 328.301C223.17 328.486 223.463 328.869 223.598 329.029C217.631 328.892 211.693 327.747 206.23 325.275C203.417 324.106 200.292 324.129 197.467 323.108C195.931 322.647 194.582 321.755 193.059 321.146C193.592 322.858 194.126 324.57 194.721 326.258C199.153 328.282 203.759 330.024 208.54 331.128C211.896 331.868 215.363 332.351 218.805 333.129C223.304 334.059 227.79 335.136 232.289 336.066C233.628 336.392 235.155 336.288 236.431 336.995C235.309 337.58 234.055 337.292 232.837 337.274C224.299 336.941 215.966 334.961 207.557 333.51C203.438 333 199.368 332.256 195.437 330.96C195.714 332.203 195.991 333.447 196.145 334.739C204.858 337.139 213.671 339.072 222.547 340.624C236.845 343.098 251.454 342.387 265.934 342.795C268.764 342.746 271.555 343.139 274.374 342.881C273.717 341.218 273.085 339.616 272.49 337.928C268.168 338.709 263.954 337.239 259.635 337.306C256.338 337.254 253.054 337.055 249.82 336.623C248.824 336.446 247.729 336.38 246.895 335.712C248.657 335.302 250.501 335.642 252.322 335.564C256.85 335.485 261.375 336.12 265.834 335.143C267.472 334.782 269.135 334.481 270.833 334.452C270.483 333.023 269.787 331.803 269.005 330.545C266.615 331.346 264.193 330.806 261.72 330.857C259.112 330.747 256.454 330.871 253.847 330.404L253.345 330.033C253.924 329.876 254.551 329.841 255.155 329.746C255.992 329.7 256.828 329.655 257.604 329.633C261.05 329.341 264.596 328.938 267.716 327.279C266.873 326.045 266.252 324.653 265.446 323.333C262.588 324.034 259.403 323.725 256.738 322.569C259.006 321.816 261.528 321.889 263.784 320.927C261.621 317.793 258.518 315.529 255.168 313.718C248.308 309.875 240.451 308.561 233.666 304.546C230.229 302.698 227.412 299.893 224.508 297.408C218.465 292.387 212.014 287.955 205.116 284.198C197.423 279.687 189.046 276.513 180.83 273.205C172.268 270.105 163.893 266.574 155.63 262.786C160.559 266.609 165.512 270.493 170.267 274.598C173.847 277.172 178.21 278.298 182.3 279.817C188.588 282.391 194.826 285.198 200.815 288.46C201.723 288.956 202.99 289.096 203.366 290.23C199.702 289.611 196.189 288.292 192.663 287.12L192.712 287.243ZM226.457 349.264C236.037 350.253 245.731 350.628 255.38 350.166C262.431 349.803 269.422 349.465 276.461 349.25C275.95 347.956 275.501 346.638 275.027 345.258C271.591 346.116 268.06 346.015 264.553 345.975C253.173 345.839 241.961 343.784 230.645 342.911C219.367 341.951 207.712 342.564 196.828 338.814C196.799 339.822 196.917 340.844 197.158 341.816C206.878 344.602 216.46 347.941 226.531 349.092L226.457 349.264ZM197.202 345.716C197.445 346.332 197.244 347.266 198.068 347.368C204.466 350.041 211.174 352.235 218.058 353.434C228.102 355.237 238.284 356.487 248.471 356.667C258.376 356.674 268.2 355.573 277.964 354.14C277.599 353.216 277.234 352.291 276.869 351.367C272.114 352.675 267.105 352.801 262.183 352.963C252.032 353.054 241.949 351.694 231.836 351.342C223.325 350.714 214.636 351.082 206.329 348.807C203.159 347.993 200.1 346.922 197.078 345.765L197.202 345.716ZM275.553 359.222C278.065 361.435 280.28 363.978 282.434 366.546C281.315 363.712 280.221 360.94 279.102 358.106C277.992 358.544 276.821 359.006 275.615 359.197L275.553 359.222ZM146.56 347.905C147.234 356.469 146.395 364.99 146.084 373.586C145.366 387.828 142.973 402.16 144.753 416.412C145.215 420.289 147.031 423.987 150.157 426.313C157.551 431.868 166.583 434.356 175.407 436.498C182.277 438.201 189.386 438.884 196.446 439.444C205.905 440.125 215.276 441.126 224.606 442.926C234.269 444.666 243.781 447.106 253.394 449.08C261.052 450.614 268.822 451.89 276.687 451.421C286.705 450.813 296.784 450.537 306.779 452.217C313.062 453.155 319.18 455.297 325.576 455.621C330.607 455.913 335.437 454.434 340.217 453.188C347.522 451.301 354.562 448.38 361.588 445.606C369.527 442.258 376.541 436.926 382.5 430.728C385.22 427.874 388.236 425.046 389.754 421.313C391.06 418.305 389.5 415.075 387.974 412.473C383.943 406.231 378.158 401.322 372.236 396.967C362.254 389.727 351.243 384.032 340.965 377.124C344.639 380.658 348.202 384.45 352.347 387.371C357.694 391.171 362.151 395.963 366.928 400.486C367.908 401.523 369.134 402.464 369.891 403.66C368.834 403.508 368.099 402.73 367.266 402.062C362.326 398.03 357.461 393.826 352.831 389.316C350.528 387.092 348.027 385.088 345.267 383.33C339.722 379.75 334.612 375.287 330.872 369.785C330.757 370.756 330.173 371.984 331.08 372.836C333.577 375.553 335.234 379.03 338.288 381.171C340.777 382.966 343.267 384.76 345.583 386.837C354.81 394.873 364.087 403.032 372.622 411.84C371.574 412.253 370.791 411.352 370.006 410.807C363.139 405.685 356.866 399.9 350.235 394.471C345.774 390.749 341.077 387.334 337.011 383.17C334.649 380.614 331.668 378.657 329.107 376.321C328.833 377.07 328.535 377.758 328.322 378.483C330.685 381.039 332.504 384.024 334.867 386.581C342.432 394.917 350.554 402.677 357.798 411.283C357.256 411.354 356.826 411.168 356.409 410.834C348.872 404.552 341.928 397.608 335.28 390.334C332.624 387.395 329.646 384.725 326.928 381.81C326.221 383.086 325.342 384.288 324.807 385.638C325.783 387.389 327.388 388.75 328.673 390.379C335.699 398.073 342.665 405.792 350.384 412.714C353.324 415.47 356.438 417.944 359.279 420.81C359.094 420.883 358.614 420.93 358.405 420.941C351.881 416.325 345.864 411.009 339.847 405.693C333.844 400.23 327.939 394.656 322.43 388.642C321.837 389.303 320.752 389.803 320.55 390.737C326.782 397.321 332.41 404.357 338.802 410.806C341.937 414.055 344.949 417.352 348.244 420.466C348.366 420.774 348.67 421.366 348.792 421.674C347.182 421.384 346.08 420.039 344.854 419.098C338.066 413.09 331.636 406.727 325.008 400.585C322.387 397.916 319.384 395.541 317.529 392.286C316.604 392.651 315.631 392.893 314.682 393.196C322.182 402.27 330.4 410.634 337.961 419.683C337.776 419.756 337.272 419.742 337.063 419.753C327.581 410.892 318.272 401.748 308.926 392.691C308.73 392.555 308.3 392.368 308.104 392.232C314.761 400.072 321.097 408.182 327.408 416.23C327.96 416.724 328.509 417.575 327.256 417.287C320.639 411.353 314.702 404.796 308.481 398.421C303.963 393.653 299.408 388.971 295.174 384.02C290.171 377.663 283.908 372.445 278.348 366.664C276.23 364.366 273.569 362.497 271.995 359.772C269.815 360.205 267.648 360.491 265.432 360.653C267.67 363.615 269.908 366.577 272.307 369.405C275.44 373.01 279.501 375.537 282.893 378.898C289.716 385.534 295.821 392.879 302.002 400.053C305.746 404.486 309.466 408.856 313.05 413.423C312.237 413.531 311.699 412.889 311.148 412.394C304.056 405.438 296.89 398.653 289.86 391.672C286.136 388.015 282.474 384.333 279.048 380.345C276.563 377.48 274.684 374.163 272.039 371.433C268.697 367.839 264.156 365.359 261.332 361.275C259.266 361.094 257.049 361.613 254.932 361.665C258.652 366.036 261.693 371.031 266.093 374.777C272.464 380.451 278.379 386.591 283.935 393.085C288.303 398.197 292.672 403.309 296.597 408.738C296.042 408.957 295.465 408.758 295.085 408.338C288.861 402.677 283.217 396.502 277.352 390.486C273.262 386.261 269.172 382.036 265.526 377.493C263.545 375 261.563 372.507 259.223 370.368C256.479 367.748 253.401 365.545 250.633 362.864C249.3 361.111 246.847 361.937 244.929 361.769C247.794 364.697 249.795 368.322 252.636 371.188C260.326 379.119 267.214 387.723 274.299 396.106C278.703 401.489 283.244 406.675 287.266 412.351C286.737 412.275 286.307 412.088 285.928 411.668C275.68 400.688 265.593 389.573 255.482 378.397C252.495 375.161 249.805 371.594 246.237 368.872C243.061 366.423 240.145 363.728 237.032 361.254C234.646 360.986 232.26 360.717 229.837 360.534C233.207 363.476 235.724 367.325 239.057 370.354C242.315 373.554 246.315 375.749 249.536 379.035C259.2 388.536 267.504 399.287 276.007 409.817C277.23 411.47 278.699 413.027 279.662 414.925C278.739 414.933 278.227 413.996 277.528 413.489C271.221 407.077 265.136 400.506 258.792 394.181C254.592 389.857 250.256 385.729 246.216 381.271C242.898 377.739 240.581 373.312 236.682 370.294C232.589 366.783 227.579 364.559 223.684 360.827C221.958 358.802 219.089 359.294 216.804 358.558C220.604 361.687 224.045 365.171 227.264 368.813C229.552 371.542 232.063 374.111 234.747 376.399C241.255 381.877 246.267 388.799 251.836 395.146C257.085 401.406 262.434 407.555 267.819 413.618C268.333 414.199 268.724 414.828 268.992 415.506C267.616 414.909 266.711 413.7 265.633 412.772C258.848 406.051 252.496 398.803 245.649 392.106C242.611 389.103 239.537 386.187 236.66 383.05C233.207 379.357 230.533 374.929 226.561 371.726C220.04 366.395 212.888 361.813 206.108 356.727C203.988 354.787 200.988 354.405 198.583 353.004C201.581 356.449 205.681 358.534 208.915 361.672C211.72 364.268 214.328 367.084 216.874 369.924C219.835 373.455 222.66 377.182 225.943 380.444C232.287 386.77 238.074 393.671 244.221 400.218C249.73 406.232 255.201 412.333 260.266 418.666C261.55 420.295 263.032 421.704 263.909 423.565C263.257 423.537 262.805 422.933 262.426 422.513C249.757 408.287 236.532 394.636 223.109 381.207C220.01 378.229 216.539 375.753 213.465 372.837C208.994 368.549 204.177 364.468 200.768 359.262C199.779 357.659 198.445 356.263 196.974 355.063C196.573 356.575 196 358.011 195.059 359.237C197.383 362.237 200.028 364.967 202.315 368.052C206.02 372.927 209.911 377.729 214.555 381.735C221.172 387.668 226.812 394.557 232.65 401.225C237.509 406.855 242.405 412.4 247.041 418.189C246.856 418.262 246.413 418.223 246.204 418.235C239.91 411.675 233.456 405.251 227.001 398.826C222.984 394.786 218.882 390.709 215.285 386.289C212.593 383.079 210.037 379.673 207.024 376.732C201.843 371.728 196.067 367.385 191.084 362.16C190.036 362.573 189.05 362.963 187.954 363.253C190.976 366.76 193.518 370.67 196.8 373.932C199.751 376.897 203.024 379.593 205.938 382.644C212.673 389.599 218.123 397.631 224.154 405.148C224.582 405.692 224.949 406.259 225.217 406.937C224.602 406.823 224.062 406.538 223.682 406.118C216.237 398.447 208.755 390.861 201.692 382.896C198.473 379.253 195.711 375.145 192.097 371.943C189.156 369.187 185.61 367.241 183.028 364.129C180.999 363.862 178.968 363.952 176.878 363.709C178.36 365.118 180.115 366.134 181.548 367.42C185.948 371.166 189.717 375.66 193.499 380.006C203.083 390.75 212.223 401.812 221.424 412.849C222.415 414.096 223.689 415.159 224.088 416.711C223.204 416.276 222.655 415.425 221.969 414.77C214.976 407.704 208.205 400.478 201.274 393.387C194.771 386.839 188.305 380.205 181.864 373.633C179.929 371.619 178.131 369.41 176.579 367.102C175.223 364.932 172.792 363.826 170.744 362.427C167.134 360.862 163.178 359.503 160.238 356.747C163.136 360.659 166.034 364.571 169.512 367.969C173.542 371.862 177.486 375.717 181.134 379.903C187.534 387.275 193.873 394.671 200.274 402.042C202.097 404.314 204.142 406.426 205.558 408.929C205.3 408.817 204.747 408.68 204.489 408.568C193.539 397.794 182.193 387.46 172.603 375.437C170.169 372.339 167.834 369.131 165.078 366.302C161.172 362.361 156.944 358.689 153.235 354.527C150.885 351.823 148.005 349.399 146.482 346.084C146.234 346.538 146.784 347.389 146.732 347.979L146.56 347.905ZM134.044 329.915C135.408 330.303 136.735 330.776 138.024 331.335C135.24 326.808 132.801 322.074 129.671 317.755C128.12 315.448 126.185 313.435 124.633 311.128C125.541 314.33 126.88 317.362 128.158 320.418C130.075 323.649 132.374 326.587 134.106 329.891L134.044 329.915ZM128.529 328.034C127.935 325.989 127.551 323.933 127.019 321.864C126.428 319.463 124.936 317.488 124.036 315.209C123.087 312.806 122.101 310.489 121.153 308.086C120.618 306.731 119.453 305.766 118.474 304.729C116.539 302.715 114.42 300.775 112.386 298.872C114.551 304.355 116.469 309.935 118.794 315.284C120.929 319.07 123.448 322.562 125.905 326.079C126.503 327.053 127.51 327.439 128.48 327.91L128.529 328.034ZM116.179 319.307C117.624 320.802 118.611 322.762 120.452 323.816C120.013 323.064 119.512 322.336 119.233 321.449C118.119 317.545 117.128 313.592 115.213 310.004C114.364 307.491 112.761 305.417 111.85 302.928C110.582 300.438 109.585 297.912 108.44 295.373C106.201 292.768 103.801 290.297 102.228 287.215C102.473 287.474 101.595 285.613 101.579 286.474C103.126 289.851 103.7 293.47 105.062 296.92C105.376 298.078 105.567 299.284 106.03 300.455C106.834 302.131 106.788 304.001 107.593 305.677C108.382 307.858 109.949 309.661 111.084 311.634C112.733 314.187 114.061 317.01 116.179 319.307ZM104.286 305.06C105.234 307.463 106.836 309.536 108.377 311.634C107.817 310.217 107.714 308.692 107.302 307.288C106.269 304.491 105.027 301.705 104.056 298.884C103.146 296.039 102.274 293.107 101.094 290.298C100.143 288.251 99.8712 285.938 99.0199 283.781C98.4119 282.241 98.1737 280.555 97.4797 278.977C95.7495 275.316 93.5879 271.826 92.1043 268.068C93.4854 275.356 96.0488 282.391 97.5531 289.63C98.61 295.195 101.91 299.945 104.224 305.084L104.286 305.06ZM94.1663 292.961C95.4264 294.529 96.8096 296.048 97.9707 297.726C94.2108 286.036 91.1533 274.14 88.3049 262.233C87.945 260.238 86.599 258.633 85.6845 256.858C84.3305 254.33 82.5693 252.035 81.3386 249.458C82.3145 253.916 83.4137 258.324 84.4512 262.757C87.2156 271.564 89.9184 280.396 92.8677 289.13C93.2925 290.386 93.1868 291.923 94.1663 292.961ZM82.2288 267.052C83.4723 272.187 84.7773 277.298 86.8836 282.092C86.9616 281.207 86.3745 280.441 86.12 279.616C84.5343 273.976 84.6485 267.949 83.0013 262.332C82.5702 259.796 81.1042 257.527 80.6731 254.991C79.5689 251.653 78.7356 248.278 77.8163 244.867C76.1055 242.338 73.8757 240.299 71.9054 238.014C73.3127 242.301 75.4224 246.382 76.6448 250.742C78.6132 256.089 80.8524 261.4 82.2661 266.967L82.2288 267.052ZM64.2929 231.904C67.9821 237.64 71.3014 243.522 74.1764 249.722C72.8437 245.263 70.9562 241.024 69.3153 236.687C68.6133 234.187 65.9487 233.031 64.3578 231.167C63.8681 230.648 63.6265 229.675 62.741 229.597C62.835 230.557 63.8908 231.066 64.2929 231.904ZM21.0184 181.835C26.6102 185.894 30.8914 191.325 34.926 196.854C38.6428 201.938 43.422 206.104 47.7812 210.65C52.7403 215.813 58.7263 219.788 64.1559 224.339C70.3574 229.581 76.6074 234.947 81.6589 241.427C90.2683 252.77 96.323 265.761 102.983 278.3C105.679 283.146 108.449 288.177 112.578 291.959C118.716 297.583 124.78 303.379 130.003 309.933C135.497 316.452 139.412 324.022 143.709 331.298C147.529 337.908 152.312 344.067 158.121 349.038C161.38 351.881 164.961 354.456 168.977 356.146C172.991 358.193 177.577 358.804 182.055 358.959C184.873 359.057 187.803 358.541 190.197 357.026C191.234 356.404 191.891 355.361 192.019 354.242C192.439 351.157 192.479 348.008 192.247 344.895C191.653 337.795 190.739 330.607 188.752 323.771C185.745 314.348 181.85 305.204 176.45 296.939C171.261 288.305 164.393 280.833 157.352 273.643C151.462 267.565 145.695 261.439 139.631 255.643C134.106 250.49 128.717 245.14 123.093 240.096C111.722 230.058 100.115 220.327 87.8155 211.367C68.0609 196.876 45.3137 185.632 20.8951 181.884L21.0184 181.835ZM51.2697 71.6915C49.419 72.7781 48.9776 75.0887 48.5379 77.0426C47.3386 83.569 47.0492 90.2348 46.7972 96.8146C46.5614 102.533 46.264 108.277 46.0526 114.057C45.8461 118.767 45.6396 123.478 46.1225 128.129C46.8612 135.956 48.3509 143.7 49.9022 151.419C50.9121 156.504 52.1929 161.552 54.0284 166.382C55.7552 170.757 58.4812 174.594 60.7384 178.688C59.5759 174.661 58.2416 170.559 57.929 166.338C57.5694 161.638 57.0866 156.986 56.1853 152.357C55.2047 146.264 53.6824 140.242 53.3051 134.053C52.7449 124.874 52.5788 115.611 53.5075 106.414C53.7347 105.185 53.6424 103.868 54.4226 102.777C55.0793 104.441 54.8861 106.297 55.1487 108.045C56.0171 117.102 57.2665 126.222 57.5932 135.351C57.8246 141.17 57.4039 146.962 58.3245 152.723C59.1122 157.966 60.6021 163.004 61.784 168.163C62.9997 173.95 65.2504 179.47 67.7232 184.832C68.4059 186.201 68.8663 187.728 69.9934 188.778C70.814 189.594 71.6476 190.262 72.4681 191.077C69.6241 183.512 68.1848 175.535 66.9546 167.546C66.2982 163.177 65.9986 158.808 65.9698 154.405C65.998 148.341 64.5244 142.442 63.5308 136.496C60.7573 121.711 61.2341 106.497 62.6937 91.6073C62.7213 90.9555 62.8106 90.2794 63.5129 90.0734C63.3103 104.538 65.7043 118.904 66.4002 133.299C66.7905 139.34 66.3439 145.427 67.4234 151.41C68.4593 156.199 70.1358 160.807 71.0484 165.645C72.9759 174.498 73.9789 183.716 77.9889 191.889C79.1353 194.071 80.1456 196.449 82.1808 197.996C83.1247 198.763 84.0685 199.529 84.8891 200.345C82.2284 193.063 80.6024 185.516 78.644 178.029C77.0407 170.899 75.1049 163.83 74.2899 156.532C73.0274 147.56 73.0202 138.519 72.3237 129.536C71.7632 123.063 71.1411 116.615 70.9374 110.144C70.7321 104.03 71.0068 97.8681 71.1583 91.7553C71.3874 87.4634 71.383 83.1212 71.8213 78.8178C71.8733 78.2276 72.1345 77.626 72.4443 77.1476C73.127 78.516 72.997 79.9915 73.138 81.4313C73.418 87.3738 73.612 93.279 73.6211 99.2572C73.7792 107.598 73.3712 115.948 73.8001 124.253C74.2907 132.534 75.5322 140.731 76.7494 148.867C78.4091 159.749 81.9777 170.232 84.2407 181.018C84.9231 185.092 85.9007 189.193 86.768 193.194C86.9255 191.067 86.6533 188.753 86.6389 186.551C86.7091 182.037 85.1785 177.799 84.4362 173.392C83.5835 168.886 82.9401 164.369 82.0015 159.826C80.909 153.991 80.2105 148.071 79.5121 142.151C78.6615 134.582 78.7093 126.944 79.3474 119.357C79.7275 114.365 79.5415 109.382 78.9371 104.422C77.7671 94.0598 79.1939 83.5983 81.1363 73.3603C81.4981 72.2917 81.3571 70.8518 82.4795 70.2663C82.98 76.4066 82.582 82.6168 82.4549 88.7912C82.3523 92.321 82.3358 95.8881 82.024 99.4293C81.6439 104.422 80.7352 109.338 80.8596 114.345C80.9414 123.214 82.032 132.113 83.6157 140.816C83.9628 140.252 83.3887 139.339 83.4537 138.601C83.4299 133.127 83.7013 127.679 84.3912 122.208C84.7922 117.991 84.517 113.685 85.8279 109.607C87.1518 105.381 87.7134 101.029 87.4754 96.6365C87.1242 90.1524 87.819 83.6115 88.5009 77.2181C88.5771 76.6895 88.7637 76.2598 89.0978 75.843C89.7995 81.0493 89.9839 86.3886 89.9347 91.6777C89.7346 97.6673 88.4771 103.505 88.7813 109.509C89.5665 107.347 91.5794 105.769 91.7872 103.408C92.5161 97.495 94.7938 91.8959 95.0182 85.9679C95.163 81.282 95.222 76.5588 94.8624 71.8584L95.4787 71.6151C95.623 72.3414 95.6813 73.0305 95.8256 73.7568C96.626 81.559 96.7128 89.3581 96.9715 97.2318C97.8506 96.0301 98.84 94.9273 99.3511 93.515C99.8751 91.9551 100.104 90.3694 100.566 88.8338C100.991 87.3842 101.798 85.9977 101.608 84.4346C101.305 80.78 101.335 77.0653 101.093 73.3863C101.274 71.6773 99.3324 71.0907 98.3155 70.1391C93.5703 66.6003 88.0628 62.9351 81.8105 63.3382C76.3837 63.4866 71.1707 65.2595 66.0811 66.9839C61.1764 68.6353 56.0172 69.4614 51.3183 71.8148L51.2697 71.6915Z" fill="#514E49"/>
</g>
<defs>
<clipPath id="clip0_20_23893">
<rect width="500" height="500" fill="white"/>
</clipPath>
</defs>
</svg>
